<svg xmlns="http://www.w3.org/2000/svg" viewBox="0 0 90 128"><g id="Layer_2" data-name="Layer 2"><g id="Layer_1-2" data-name="Layer 1"><path d="M90,111.26V16.74a1.87,1.87,0,0,0-1.68-1.84C81.48,14,80,7.69,80,0H75.9A4.93,4.93,0,0,1,71,4.45,4.93,4.93,0,0,1,66.1,0H58.57a4.94,4.94,0,0,1-4.9,4.45A4.92,4.92,0,0,1,48.77,0H41.23a4.92,4.92,0,0,1-4.9,4.45A4.94,4.94,0,0,1,31.43,0H23.9A4.93,4.93,0,0,1,19,4.45,4.93,4.93,0,0,1,14.1,0H10c0,7.69-1.48,14-8.32,14.9A1.87,1.87,0,0,0,0,16.74v94.52a1.87,1.87,0,0,0,1.68,1.84C8.52,114,10,120.31,10,128h4.1a4.92,4.92,0,0,1,9.8,0h7.53a4.92,4.92,0,0,1,9.8,0h7.54a4.92,4.92,0,0,1,9.8,0H66.1a4.92,4.92,0,0,1,9.8,0H80c0-7.69,1.48-14,8.32-14.9A1.87,1.87,0,0,0,90,111.26ZM78.54,113H15.46A1.46,1.46,0,0,1,14,111.54V16.46A1.46,1.46,0,0,1,15.46,15H78.54A1.46,1.46,0,0,1,80,16.46v95.08A1.46,1.46,0,0,1,78.54,113Z"/><rect x="18.95" y="19.9" width="56.1" height="88.2" rx="1.46"/></g></g></svg>