<svg xmlns="http://www.w3.org/2000/svg" xmlns:xlink="http://www.w3.org/1999/xlink" viewBox="0 0 48 48"><defs><style>.f1876dbc-9e6b-474c-9e0b-3aa3738166d1{fill:url(#a2130172-f2d9-4a76-8eb9-a8768f0524a4);}.a1d7b6c9-740a-4b09-8b73-5afbc3021ee4{fill:url(#b0e6a5f5-29c7-4b55-8357-568e6bace3ea);}.eda69212-0d9c-42e0-b850-a206248be8c0{fill:url(#a0bc0d1b-4b15-49ad-acf7-8b3e5e14c81a);}.beb4988d-6d2d-4240-b575-543cd67b6c4c{fill:url(#f0590d08-5f57-4dbe-9236-115af71524cb);}.bbede4c9-4ae7-4c5e-a313-d2747f079ab0{fill:url(#ea9763c4-ebeb-4f44-8e91-353803b25c9d);}.b89b185b-faa7-457e-9a86-a4f176950bcf{fill:url(#ef9f8b8e-8221-47d8-904f-cd3d4ba1252e);}.b4bcafc8-3f73-4a11-a2c4-58be682007d7{fill:url(#f2cfa97f-0455-4a98-a067-5fc11c4ed4de);}</style><linearGradient id="a2130172-f2d9-4a76-8eb9-a8768f0524a4" x1="-0.75" y1="48.75" x2="52.17" y2="-4.17" gradientUnits="userSpaceOnUse"><stop offset="0" stop-color="#0c1626"/><stop offset="0.61" stop-color="#0e535c"/><stop offset="1" stop-color="#107c80"/></linearGradient><linearGradient id="b0e6a5f5-29c7-4b55-8357-568e6bace3ea" x1="4.03" y1="29.15" x2="18.3" y2="29.15" gradientUnits="userSpaceOnUse"><stop offset="0" stop-color="#cc714b"/><stop offset="1" stop-color="#7a2016"/></linearGradient><linearGradient id="a0bc0d1b-4b15-49ad-acf7-8b3e5e14c81a" x1="4.82" y1="22.59" x2="22.87" y2="33.73" gradientUnits="userSpaceOnUse"><stop offset="0" stop-color="#ebfff8"/><stop offset="1" stop-color="#63b3af"/></linearGradient><linearGradient id="f0590d08-5f57-4dbe-9236-115af71524cb" x1="25.7" y1="26.13" x2="47.01" y2="36.21" gradientUnits="userSpaceOnUse"><stop offset="0" stop-color="#fff6e4"/><stop offset="1" stop-color="#ffc48e"/></linearGradient><linearGradient id="ea9763c4-ebeb-4f44-8e91-353803b25c9d" x1="26" y1="22.82" x2="46.84" y2="35.31" xlink:href="#b0e6a5f5-29c7-4b55-8357-568e6bace3ea"/><linearGradient id="ef9f8b8e-8221-47d8-904f-cd3d4ba1252e" x1="15.77" y1="16.13" x2="28.43" y2="9.98" gradientUnits="userSpaceOnUse"><stop offset="0" stop-color="#fff6e4"/><stop offset="0.88" stop-color="#ffc48e"/></linearGradient><linearGradient id="f2cfa97f-0455-4a98-a067-5fc11c4ed4de" x1="10.95" y1="18.15" x2="30.39" y2="8.7" gradientUnits="userSpaceOnUse"><stop offset="0" stop-color="#107c80"/><stop offset="1" stop-color="#cae6e1"/></linearGradient></defs><g id="fc27f5b2-77ba-489a-a1a3-a125846d2b5d" data-name="Layer 2"><g id="aa8df91a-a101-4824-9f40-23196a36fe6c" data-name="Teal Icons Logos"><g id="beacaa88-f165-478a-b824-b66492230390" data-name="Icon 2 Burg"><rect class="f1876dbc-9e6b-474c-9e0b-3aa3738166d1" width="48" height="48" rx="10"/><g id="a803b40d-21b7-4a8a-ae73-f6314d360a83" data-name="Phone"><path class="a1d7b6c9-740a-4b09-8b73-5afbc3021ee4" d="M5.22,43.42H7.6V41H5.22Zm4.76,0h2.37V41H10Zm4.75,0h2.38V41H14.73Zm1.19-28.53H6.41A2.38,2.38,0,0,0,4,17.26v19a2.37,2.37,0,0,0,2.38,2.37h9.51a2.37,2.37,0,0,0,2.38-2.37v-19A2.37,2.37,0,0,0,15.92,14.89Zm0,19H6.41V19.64h9.51Z"/><rect class="eda69212-0d9c-42e0-b850-a206248be8c0" x="5.22" y="16.39" width="11.89" height="20.23" rx="0.84"/></g><rect class="beb4988d-6d2d-4240-b575-543cd67b6c4c" x="24.94" y="23.08" width="17.23" height="13.54"/><path id="bedfa32d-5832-4514-aeba-2d6ac5821851" data-name="Calendar" class="bbede4c9-4ae7-4c5e-a313-d2747f079ab0" d="M39.71,28H33.56v6.16h6.15ZM38.48,14.47v2.46H28.64V14.47H26.17v2.46H24.94a2.45,2.45,0,0,0-2.45,2.46V36.62a2.46,2.46,0,0,0,2.46,2.46H42.17a2.47,2.47,0,0,0,2.47-2.46V19.39a2.47,2.47,0,0,0-2.47-2.46H40.94V14.47Zm3.69,22.15H24.94V23.08H42.17Z"/><rect class="b89b185b-faa7-457e-9a86-a4f176950bcf" x="15.92" y="9.42" width="11.3" height="7.79"/><path id="a06bcd48-cbb9-4184-a8ee-d33c4fee4731" data-name="Messages" class="b4bcafc8-3f73-4a11-a2c4-58be682007d7" d="M27.55,6.79H14.75a1.6,1.6,0,0,0-1.59,1.6v14.4l3.2-3.2h11.2a1.6,1.6,0,0,0,1.6-1.6V8.39A1.6,1.6,0,0,0,27.55,6.79ZM18,16.39h-1.6v-1.6H18ZM18,14h-1.6v-1.6H18Zm0-2.4h-1.6V10H18Zm5.6,4.8h-4v-1.6h4ZM26,14h-6.4v-1.6H26Zm0-2.4h-6.4V10H26Z"/></g></g></g></svg>