<svg xmlns="http://www.w3.org/2000/svg" xmlns:xlink="http://www.w3.org/1999/xlink" viewBox="0 0 48 48"><defs><style>.ae0065de-88ba-4f45-babe-f12d9cf1cc1e{isolation:isolate;}.bac2227f-7bb0-4d51-874b-a29061c90be2{fill:url(#a7b90eae-1b1d-4956-bee4-718c40151a6a);}.f0b30a08-1a80-4d3b-8d9d-3214c3e74a65{fill:url(#b59fbe4b-1910-45a0-b44e-3dc2f2f357d9);}.b7e3ad8e-7e74-4538-b6dc-19f9aff7d448{fill:url(#a186cd01-4efd-428c-a12c-fad9b9f3647a);}.eec49b8a-f6b0-4782-8327-7122cb3f36ed{fill:url(#ef64b3f7-5de3-402b-940f-8f28690ad6f5);}.e800e312-5446-4fe9-a599-7d9010eb4ef3{fill:url(#e215387e-0b8c-48ed-ae87-1a9c2aee9cc0);}.b8b99534-62ba-4325-8447-c91c2c890bb5{fill:url(#b2d44087-e8bd-4e72-9dd9-e3abb5792ad6);}.a39414ce-f26b-40c8-969d-7d7e86372917{fill:url(#b447b8d1-4895-446b-9e02-03c76b0a7fb7);}.a682bfaf-eed9-4ddc-b3b2-bb64ffdb5572{opacity:0.2;mix-blend-mode:hard-light;fill:url(#fcb4c32d-f834-4a1d-b9f8-42ecdfaa0a31);}</style><linearGradient id="a7b90eae-1b1d-4956-bee4-718c40151a6a" x1="-0.75" y1="48.75" x2="52.17" y2="-4.17" gradientUnits="userSpaceOnUse"><stop offset="0" stop-color="#330510"/><stop offset="0.87" stop-color="#701c15"/><stop offset="1" stop-color="#7a2016"/></linearGradient><linearGradient id="b59fbe4b-1910-45a0-b44e-3dc2f2f357d9" x1="4.03" y1="29.15" x2="18.3" y2="29.15" gradientUnits="userSpaceOnUse"><stop offset="0" stop-color="#63b3af"/><stop offset="1" stop-color="#107c80"/></linearGradient><linearGradient id="a186cd01-4efd-428c-a12c-fad9b9f3647a" x1="4.82" y1="22.59" x2="22.87" y2="33.73" gradientUnits="userSpaceOnUse"><stop offset="0" stop-color="#fff6e4"/><stop offset="1" stop-color="#ffc48e"/></linearGradient><linearGradient id="ef64b3f7-5de3-402b-940f-8f28690ad6f5" x1="25.7" y1="26.13" x2="47.01" y2="36.21" xlink:href="#a186cd01-4efd-428c-a12c-fad9b9f3647a"/><linearGradient id="e215387e-0b8c-48ed-ae87-1a9c2aee9cc0" x1="26" y1="22.82" x2="46.84" y2="35.31" gradientUnits="userSpaceOnUse"><stop offset="0" stop-color="#cc714b"/><stop offset="1" stop-color="#7a2016"/></linearGradient><linearGradient id="b2d44087-e8bd-4e72-9dd9-e3abb5792ad6" x1="15.77" y1="16.13" x2="28.43" y2="9.98" gradientUnits="userSpaceOnUse"><stop offset="0" stop-color="#ebfff8"/><stop offset="0.88" stop-color="#107c80"/></linearGradient><linearGradient id="b447b8d1-4895-446b-9e02-03c76b0a7fb7" x1="10.95" y1="18.15" x2="30.39" y2="8.7" gradientUnits="userSpaceOnUse"><stop offset="0" stop-color="#cc714b"/><stop offset="1" stop-color="#ffc48e"/></linearGradient><linearGradient id="fcb4c32d-f834-4a1d-b9f8-42ecdfaa0a31" y1="24" x2="48" y2="24" gradientUnits="userSpaceOnUse"><stop offset="0" stop-color="#42001a"/><stop offset="1" stop-color="#a59196"/></linearGradient></defs><g class="ae0065de-88ba-4f45-babe-f12d9cf1cc1e"><g id="b3434b33-9e70-4597-a774-18a44630ef78" data-name="Layer 2"><g id="a510c26e-e1eb-470f-9bd7-88fab8e23a6d" data-name="Burg Icons"><g id="a45b18ae-68d4-45eb-87fc-b2f0a0699763" data-name="Icon 2 Teal"><rect class="bac2227f-7bb0-4d51-874b-a29061c90be2" width="48" height="48" rx="10"/><g id="e35d0177-645b-4ed3-942a-31f5e8f9dd0a" data-name="Phone"><path class="f0b30a08-1a80-4d3b-8d9d-3214c3e74a65" d="M5.22,43.42H7.6V41H5.22Zm4.76,0h2.37V41H10Zm4.75,0h2.38V41H14.73Zm1.19-28.53H6.41A2.38,2.38,0,0,0,4,17.26v19a2.37,2.37,0,0,0,2.38,2.37h9.51a2.37,2.37,0,0,0,2.38-2.37v-19A2.37,2.37,0,0,0,15.92,14.89Zm0,19H6.41V19.64h9.51Z"/><rect class="b7e3ad8e-7e74-4538-b6dc-19f9aff7d448" x="5.22" y="16.39" width="11.89" height="20.23" rx="0.84"/></g><rect class="eec49b8a-f6b0-4782-8327-7122cb3f36ed" x="24.94" y="23.08" width="17.23" height="13.54"/><path id="bd91d365-09dd-4a0b-9400-bb3046437ed8" data-name="Calendar" class="e800e312-5446-4fe9-a599-7d9010eb4ef3" d="M39.71,28H33.56v6.16h6.15ZM38.48,14.47v2.46H28.64V14.47H26.17v2.46H24.94a2.45,2.45,0,0,0-2.45,2.46V36.62a2.46,2.46,0,0,0,2.46,2.46H42.17a2.47,2.47,0,0,0,2.47-2.46V19.39a2.47,2.47,0,0,0-2.47-2.46H40.94V14.47Zm3.69,22.15H24.94V23.08H42.17Z"/><rect class="b8b99534-62ba-4325-8447-c91c2c890bb5" x="15.92" y="9.42" width="11.3" height="7.79"/><path id="a95f8ee6-8a28-407e-8d4b-657801369c40" data-name="Messages" class="a39414ce-f26b-40c8-969d-7d7e86372917" d="M27.55,6.79H14.75a1.6,1.6,0,0,0-1.59,1.6v14.4l3.2-3.2h11.2a1.6,1.6,0,0,0,1.6-1.6V8.39A1.6,1.6,0,0,0,27.55,6.79ZM18,16.39h-1.6v-1.6H18ZM18,14h-1.6v-1.6H18Zm0-2.4h-1.6V10H18Zm5.6,4.8h-4v-1.6h4ZM26,14h-6.4v-1.6H26Zm0-2.4h-6.4V10H26Z"/><rect class="a682bfaf-eed9-4ddc-b3b2-bb64ffdb5572" width="48" height="48" rx="10.03"/></g></g></g></g></svg>