<svg xmlns="http://www.w3.org/2000/svg" xmlns:xlink="http://www.w3.org/1999/xlink" viewBox="0 0 48 48"><defs><style>.f1b9a396-d964-4d0f-a9ec-4b27ffe1535b{isolation:isolate;}.b2d2e184-debf-4e0f-b5c9-9a8bf8b21bfb{fill:url(#aaa61a95-c1dc-4404-b3c3-6c231c95f905);}.b2ed1586-2ff4-4ea2-8dd3-913d6285c6aa{fill:#7a2016;}.afb81f19-10ef-463c-b4b2-fce09d596791{fill:#fff6e4;}.b6525859-6af2-4d22-b0e1-40ec7c5f773d{fill:#cc714b;}.b1c41fdb-4b6f-4bb6-b338-418aacb51a2a{fill:#ffc48e;}.f76e4ee1-e0be-4c04-bcb3-812f6ebfeff2{opacity:0.5;mix-blend-mode:hard-light;fill:url(#b12b38b4-c700-4da7-a396-f4488312214e);}</style><linearGradient id="aaa61a95-c1dc-4404-b3c3-6c231c95f905" y1="24" x2="48" y2="24" gradientUnits="userSpaceOnUse"><stop offset="0" stop-color="#14070c"/><stop offset="1" stop-color="#330510"/></linearGradient><linearGradient id="b12b38b4-c700-4da7-a396-f4488312214e" y1="24" x2="48" y2="24" gradientUnits="userSpaceOnUse"><stop offset="0" stop-color="#42001a"/><stop offset="1" stop-color="#a59196"/></linearGradient></defs><g class="f1b9a396-d964-4d0f-a9ec-4b27ffe1535b"><g id="a093eefd-f66a-4f6e-86ce-90798bbdf7f8" data-name="Layer 2"><g id="f9992eac-1d82-4076-967a-a5dbcc2dbf15" data-name="Icon 2"><rect class="b2d2e184-debf-4e0f-b5c9-9a8bf8b21bfb" width="48" height="48" rx="10.03"/><path class="b2ed1586-2ff4-4ea2-8dd3-913d6285c6aa" d="M30.43,41.28l-.57-.13a.81.81,0,0,1,.1.21Z"/><path class="b2ed1586-2ff4-4ea2-8dd3-913d6285c6aa" d="M27.8,37.49l-.58-.14-2.75.48,3.08.72,3.43.81a4.34,4.34,0,0,1,.12-1.11Z"/><path class="b2ed1586-2ff4-4ea2-8dd3-913d6285c6aa" d="M22.11,42.32l-1.66-.39L20.91,40l6,1.4.26.06a1.47,1.47,0,0,1,.49-.83l-.54-.12-6-1.41.17-.7-9.67,1.69a.43.43,0,0,1-.5-.35L6.27,12.07a.44.44,0,0,1,.35-.5L22.1,8.86A13.3,13.3,0,0,1,25.05,5.6a9.82,9.82,0,0,1-.42-1.68l-1.2.21a1.45,1.45,0,0,1-2.85.5L18.39,5a1.45,1.45,0,0,1-2.85.5l-2.19.39a1.45,1.45,0,0,1-2.85.5l-2.19.38a1.45,1.45,0,0,1-2.85.5l-1.2.21c.4,2.24.29,4.15-1.66,4.76a.54.54,0,0,0-.39.62L7,40.36a.55.55,0,0,0,.58.45c2-.08,2.79,1.68,3.18,3.91l1.2-.2A1.44,1.44,0,0,1,13.31,43,1.46,1.46,0,0,1,14.84,44L17,43.63a1.45,1.45,0,0,1,2.85-.5l2.19-.38A1.53,1.53,0,0,1,22.11,42.32Z"/><path class="b2ed1586-2ff4-4ea2-8dd3-913d6285c6aa" d="M22,36.1,22.5,34c-.73-1.19-.32-2.93,0-4.11.86-2.54-.5-6.92-1.1-8.63-.15-.36-.29-.74-.39-1.06l-.33-.84.06-.05A13.29,13.29,0,0,1,20.65,13a12.49,12.49,0,0,1,.81-2.37L8.3,12.93a.43.43,0,0,0-.35.5l4.35,24.8a.42.42,0,0,0,.5.35l11.31-2L23,36.33Z"/><path class="afb81f19-10ef-463c-b4b2-fce09d596791" d="M45.43,18.82A13.5,13.5,0,0,0,36,2.9a13.49,13.49,0,0,0-15.56,10,13.29,13.29,0,0,0,.06,6.33l-.06.05.32.84a10.18,10.18,0,0,0,.4,1.06c.6,1.71,2,6.09,1.09,8.63-.28,1.18-.69,2.92,0,4.12l-.49,2.08,1,.23,5.11,1.22L33,38.68l1,.23.49-2.09c1.18-.74,1.59-2.49,1.86-3.67.36-2.66,3.53-6,4.82-7.24a10.73,10.73,0,0,0,.83-.77l.67-.61,0-.07A13.36,13.36,0,0,0,45.43,18.82Z"/><polygon class="b6525859-6af2-4d22-b0e1-40ec7c5f773d" points="27.59 38.56 21.61 37.16 21.15 39.11 27.13 40.51 33.1 41.91 33.56 39.97 27.59 38.56"/><polygon class="b6525859-6af2-4d22-b0e1-40ec7c5f773d" points="20.94 40 20.49 41.95 26.46 43.35 32.44 44.76 32.89 42.81 26.92 41.41 20.94 40"/><path class="b1c41fdb-4b6f-4bb6-b338-418aacb51a2a" d="M26.21,44.41l-5-1.18-.15.65c-.17.72.6,1.52,1.73,1.78l3,.69,2.95.7c1.13.26,2.18-.11,2.35-.82l.15-.65Z"/><rect class="f76e4ee1-e0be-4c04-bcb3-812f6ebfeff2" width="48" height="48" rx="10.03"/></g></g></g></svg>