<svg xmlns="http://www.w3.org/2000/svg" xmlns:xlink="http://www.w3.org/1999/xlink" viewBox="0 0 48 48"><defs><style>.b417a76c-fd11-4445-9298-a6872dab4ada{isolation:isolate;}.e40a583c-aa35-4886-9546-caa0f742013c{fill:url(#a6ea16a6-2e58-4d47-a120-512f2743064e);}.bbfa005a-664e-46f5-9121-6c765398200c{fill:url(#ac81238d-c271-4838-a923-e29b18e28a36);}.a4571929-6445-4790-b256-796a6ed21d29{fill:url(#ad6b9933-d6b5-4974-8550-9111c366f421);}.bdb31110-e4fb-4bb1-a8f6-bc9596814c37{opacity:0.9;fill:url(#f8c9a256-2adb-4d55-920e-b32a025cab2e);}.a5004ca8-0db3-408f-a9d5-0b69e3a299cc{fill:url(#ad399b09-fd4b-4d1d-971a-c43b7bfb21bc);}.ae2b0934-51c3-4f36-8ea3-0a569807d937{opacity:0.8;fill:url(#a6f20b74-0ebc-4f8c-97d8-c73a8c4fa81d);}.b69bd3c7-b6ca-4fef-89e7-f8a873e42e6e{fill:url(#ef064a84-b3b8-420a-ba46-a58cdaccebe3);}.e940c489-c778-4921-8c25-03a7ff365758{fill:url(#aacd2021-8408-42cd-8a87-fd39aa689f65);}.b23b61db-0835-429d-8606-0b10011d8bfe{fill:url(#f5fc300e-0ede-4193-901b-3aa50ffa632a);}.f4ead8a2-9f9c-410b-8c5a-f66a1fb85537{opacity:0.2;mix-blend-mode:hard-light;fill:url(#fcfdab82-ec8e-4f15-8e4a-afc6c0036da7);}</style><linearGradient id="a6ea16a6-2e58-4d47-a120-512f2743064e" x1="2.04" y1="45" x2="45.91" y2="3.04" gradientUnits="userSpaceOnUse"><stop offset="0" stop-color="#330510"/><stop offset="1" stop-color="#cc714b"/></linearGradient><linearGradient id="ac81238d-c271-4838-a923-e29b18e28a36" x1="7.32" y1="10.42" x2="19.25" y2="10.42" gradientTransform="translate(-0.19 0.01)" gradientUnits="userSpaceOnUse"><stop offset="0" stop-color="#cae6e1"/><stop offset="1" stop-color="#63b3af"/></linearGradient><linearGradient id="ad6b9933-d6b5-4974-8550-9111c366f421" x1="6.47" y1="10.6" x2="20.28" y2="10.6" gradientTransform="translate(1.86 -2.17) rotate(10.16)" gradientUnits="userSpaceOnUse"><stop offset="0" stop-color="#107c80"/><stop offset="1" stop-color="#143f4d"/></linearGradient><linearGradient id="f8c9a256-2adb-4d55-920e-b32a025cab2e" x1="21.52" y1="14.33" x2="40.25" y2="14.33" gradientUnits="userSpaceOnUse"><stop offset="0" stop-color="#ebfff8"/><stop offset="1" stop-color="#63b3af"/></linearGradient><linearGradient id="ad399b09-fd4b-4d1d-971a-c43b7bfb21bc" x1="19.13" y1="13.88" x2="43.58" y2="13.88" gradientUnits="userSpaceOnUse"><stop offset="0" stop-color="#cc714b"/><stop offset="1" stop-color="#661818"/></linearGradient><linearGradient id="a6f20b74-0ebc-4f8c-97d8-c73a8c4fa81d" x1="7.72" y1="26.65" x2="29.17" y2="35.46" gradientUnits="userSpaceOnUse"><stop offset="0.16" stop-color="#143f4d"/><stop offset="0.35" stop-color="#63b3af"/><stop offset="0.57" stop-color="#ebfff8"/><stop offset="0.77" stop-color="#63b3af"/><stop offset="0.87" stop-color="#143f4d"/></linearGradient><radialGradient id="ef064a84-b3b8-420a-ba46-a58cdaccebe3" cx="19.13" cy="31.7" r="7.04" xlink:href="#ad399b09-fd4b-4d1d-971a-c43b7bfb21bc"/><linearGradient id="aacd2021-8408-42cd-8a87-fd39aa689f65" x1="3.34" y1="30.49" x2="31.44" y2="30.49" xlink:href="#ad399b09-fd4b-4d1d-971a-c43b7bfb21bc"/><linearGradient id="f5fc300e-0ede-4193-901b-3aa50ffa632a" x1="25.7" y1="45.98" x2="47.13" y2="22.66" gradientTransform="translate(-3.71 4.59) rotate(-6.85)" gradientUnits="userSpaceOnUse"><stop offset="0.08" stop-color="#ebfff8"/><stop offset="0.21" stop-color="#f4e5c9"/><stop offset="0.33" stop-color="#fccd9e"/><stop offset="0.4" stop-color="#ffc48e"/><stop offset="0.46" stop-color="#f8b985"/><stop offset="0.7" stop-color="#e09265"/><stop offset="0.88" stop-color="#d17a52"/><stop offset="1" stop-color="#cc714b"/></linearGradient><linearGradient id="fcfdab82-ec8e-4f15-8e4a-afc6c0036da7" y1="24" x2="48" y2="24" gradientUnits="userSpaceOnUse"><stop offset="0" stop-color="#42001a"/><stop offset="1" stop-color="#a59196"/></linearGradient></defs><g class="b417a76c-fd11-4445-9298-a6872dab4ada"><g id="b792ea85-aeef-47d1-b002-5c73f204e20e" data-name="Layer 2"><g id="bcee9e70-04a5-4387-aa5d-0a2194291673" data-name="Burg Icons"><g id="baa39593-5fd7-47fe-af28-35132e25a4d1" data-name="Icon 3 Teal"><rect class="e40a583c-aa35-4886-9546-caa0f742013c" width="48" height="48" rx="10.03"/><g id="b312251c-da88-41c5-ba64-f6c5ac40b5cc" data-name="Check"><rect class="bbfa005a-664e-46f5-9121-6c765398200c" x="7.14" y="4.88" width="11.93" height="11.09" transform="translate(2.05 -2.15) rotate(10.16)"/><path class="a4571929-6445-4790-b256-796a6ed21d29" d="M19.66,4.77,9.08,2.87A1.55,1.55,0,0,0,7.3,4.11L5.41,14.69a1.53,1.53,0,0,0,1.24,1.78l10.57,1.9A1.53,1.53,0,0,0,19,17.13L20.9,6.55A1.54,1.54,0,0,0,19.66,4.77ZM11,14.13,7.87,9.67,9.13,8.8,11.35,12l6.75-4.7L19,8.55Z"/></g><g id="b7550f61-215a-451a-bb2f-e50b632c2bcc" data-name="Photo"><rect class="bdb31110-e4fb-4bb1-a8f6-bc9596814c37" x="21.52" y="8.39" width="18.74" height="11.88"/><path class="a5004ca8-0db3-408f-a9d5-0b69e3a299cc" d="M43.58,20.55V7.21A2.21,2.21,0,0,0,41.36,5h-20a2.22,2.22,0,0,0-2.22,2.22V20.55a2.23,2.23,0,0,0,2.22,2.22h20A2.22,2.22,0,0,0,43.58,20.55ZM27.47,14.43l2.77,3.34,3.89-5,5,6.66H23.58Z"/></g><g id="b0bfa85b-762a-437f-bebe-3843258fe45f" data-name="Camera"><rect id="a4dec82f-9035-44cf-a798-2b7d3b0c3a6d" data-name="Camera BG" class="ae2b0934-51c3-4f36-8ea3-0a569807d937" x="10.68" y="24.81" width="18.29" height="13.63"/><circle id="a8152775-df81-4844-94eb-b801a8d47666" data-name="Camera Body 2" class="b69bd3c7-b6ca-4fef-89e7-f8a873e42e6e" cx="19.13" cy="31.7" r="3.87"/><path id="b6578248-e4d0-4484-a911-d4b4d2a9fab8" data-name="Camera Body" class="e940c489-c778-4921-8c25-03a7ff365758" d="M15.5,19.6,13.28,22H9.45A2.42,2.42,0,0,0,7,24.44V39a2.42,2.42,0,0,0,2.42,2.42H28.82A2.42,2.42,0,0,0,31.24,39V24.44A2.42,2.42,0,0,0,28.82,22H25L22.76,19.6Zm3.63,18.15a6.05,6.05,0,1,1,6.05-6.05A6.05,6.05,0,0,1,19.13,37.75Z"/></g><path id="b628625c-8c10-427a-8438-0bf417789069" data-name="Brush" class="b23b61db-0835-429d-8606-0b10011d8bfe" d="M30.88,37.69a3.64,3.64,0,0,0-3.18,4.05,2.45,2.45,0,0,1-2.12,2.69,6.25,6.25,0,0,0,5.1,1.83,4.85,4.85,0,0,0,4.24-5.39A3.65,3.65,0,0,0,30.88,37.69ZM46,24.44,44.21,23a1.21,1.21,0,0,0-1.7.2L33,35.3l3.71,2.91,9.48-12.07A1.2,1.2,0,0,0,46,24.44Z"/><rect class="f4ead8a2-9f9c-410b-8c5a-f66a1fb85537" width="48" height="48" rx="10.03"/></g></g></g></g></svg>