<svg xmlns="http://www.w3.org/2000/svg" xmlns:xlink="http://www.w3.org/1999/xlink" viewBox="0 0 48 48"><defs><style>.aa502b7c-5612-40df-bee9-632c9e6c0244{isolation:isolate;}.e55c2cdd-a845-4181-923d-4430b6ad8f2f{fill:url(#f3b8cb51-4862-4165-95c6-3938888bf155);}.a0331d6c-ed37-4c60-bc96-13e645a7c4c3,.eb6212c4-65a6-40e6-950a-b3b518126c1a,.f7143da4-de75-4020-bdf3-09299cd3d6fb{opacity:0.9;}.a0331d6c-ed37-4c60-bc96-13e645a7c4c3{fill:url(#f10e17ad-50c1-403c-8a1f-00fc372a07aa);}.adf7ca8b-2c4d-476a-8fea-202c0a66cb19{fill:url(#a0c01e99-86b4-46a6-8585-25dc22f19370);}.eb6212c4-65a6-40e6-950a-b3b518126c1a{fill:url(#e2380ea0-79d0-4326-92b5-34f5abec565e);}.ba0f8ad8-cb7d-453b-8379-675942e29cff{fill:url(#b21293e9-df1d-4061-a5f4-e3d2d598c444);}.f7143da4-de75-4020-bdf3-09299cd3d6fb{fill:url(#ec498955-8ed8-46a8-b855-b6b9897034b5);}.fee30eb5-4f40-4781-a1b7-7e0284fa7049{fill:url(#e7c9c6dd-f680-4d5b-9c94-35d7779e4c7f);}.b5248e11-741a-49f4-a4ab-79500002ad89{fill:url(#a2e72d02-c4ac-4fec-9275-486e2799e9e0);}.b1564645-a81a-4ce3-ac7e-a5b5c887a072{fill:url(#afd988e5-27d3-40f4-8ee0-51845cd6f464);}.f9ca1a17-902e-4302-8f00-424b4e2b9252{opacity:0.2;mix-blend-mode:hard-light;fill:url(#be13d31e-0232-4414-a285-2994fec962eb);}</style><linearGradient id="f3b8cb51-4862-4165-95c6-3938888bf155" x1="2.04" y1="45" x2="45.91" y2="3.04" gradientUnits="userSpaceOnUse"><stop offset="0" stop-color="#143f4d"/><stop offset="1" stop-color="#63b3af"/></linearGradient><linearGradient id="f10e17ad-50c1-403c-8a1f-00fc372a07aa" x1="6.42" y1="-10.03" x2="18.35" y2="-10.03" gradientTransform="translate(0.92 25.35)" gradientUnits="userSpaceOnUse"><stop offset="0" stop-color="#ffc48e"/><stop offset="1" stop-color="#cc714b"/></linearGradient><linearGradient id="a0c01e99-86b4-46a6-8585-25dc22f19370" x1="5.97" y1="14.32" x2="21.51" y2="14.32" gradientTransform="matrix(0.86, -0.51, 0.51, 0.86, -5.69, 10.22)" gradientUnits="userSpaceOnUse"><stop offset="0" stop-color="#661818"/><stop offset="1" stop-color="#cc714b"/></linearGradient><linearGradient id="e2380ea0-79d0-4326-92b5-34f5abec565e" x1="19.04" y1="13.69" x2="37.78" y2="13.69" gradientUnits="userSpaceOnUse"><stop offset="0" stop-color="#fff6e4"/><stop offset="1" stop-color="#ffc48e"/></linearGradient><linearGradient id="b21293e9-df1d-4061-a5f4-e3d2d598c444" x1="16.66" y1="13.23" x2="41.11" y2="13.23" gradientUnits="userSpaceOnUse"><stop offset="0" stop-color="#107c80"/><stop offset="1" stop-color="#143f4d"/></linearGradient><linearGradient id="ec498955-8ed8-46a8-b855-b6b9897034b5" x1="6.25" y1="26.01" x2="27.7" y2="34.82" gradientUnits="userSpaceOnUse"><stop offset="0.19" stop-color="#ffc48e"/><stop offset="0.57" stop-color="#fff6e4"/><stop offset="0.85" stop-color="#ffc48e"/></linearGradient><radialGradient id="e7c9c6dd-f680-4d5b-9c94-35d7779e4c7f" cx="17.66" cy="31.06" r="7.04" xlink:href="#b21293e9-df1d-4061-a5f4-e3d2d598c444"/><linearGradient id="a2e72d02-c4ac-4fec-9275-486e2799e9e0" x1="1.87" y1="29.85" x2="29.97" y2="29.85" xlink:href="#b21293e9-df1d-4061-a5f4-e3d2d598c444"/><linearGradient id="afd988e5-27d3-40f4-8ee0-51845cd6f464" x1="21.6" y1="59.15" x2="43.03" y2="35.83" gradientTransform="translate(-4.68 -11.62) rotate(-6.85)" gradientUnits="userSpaceOnUse"><stop offset="0" stop-color="#fff6e4"/><stop offset="0.02" stop-color="#f0eede"/><stop offset="0.16" stop-color="#91beb6"/><stop offset="0.28" stop-color="#4c9a99"/><stop offset="0.36" stop-color="#208487"/><stop offset="0.4" stop-color="#107c80"/><stop offset="0.62" stop-color="#126068"/><stop offset="0.85" stop-color="#134854"/><stop offset="1" stop-color="#143f4d"/></linearGradient><linearGradient id="be13d31e-0232-4414-a285-2994fec962eb" y1="24" x2="48" y2="24" gradientUnits="userSpaceOnUse"><stop offset="0" stop-color="#42001a"/><stop offset="1" stop-color="#a59196"/></linearGradient></defs><g class="aa502b7c-5612-40df-bee9-632c9e6c0244"><g id="afa31ba2-f787-40b9-a933-32ef450c8fa4" data-name="Layer 2"><g id="f507790a-9197-4e58-9098-6e8b491aafdb" data-name="Teal Icons Logos"><g id="a0d20df3-6287-419c-a15f-5eae9b827b7c" data-name="Icon 3 Burg"><rect class="e55c2cdd-a845-4181-923d-4430b6ad8f2f" width="48" height="48" rx="10.03"/><g id="b367a171-83aa-46b3-90be-017d8bb3a8fa" data-name="Check"><rect class="a0331d6c-ed37-4c60-bc96-13e645a7c4c3" x="7.34" y="9.77" width="11.93" height="11.09" transform="translate(-4.56 5.7) rotate(-20.71)"/><path class="adf7ca8b-2c4d-476a-8fea-202c0a66cb19" d="M16,7.1,6,10.9a1.53,1.53,0,0,0-.89,2l3.8,10.05a1.54,1.54,0,0,0,2,.9L20.92,20a1.54,1.54,0,0,0,.89-2L18,8A1.54,1.54,0,0,0,16,7.1ZM13.37,19.59,8.43,17.36,9.06,16l3.54,1.6L16,10.05l1.4.64Z"/></g><g id="bd274563-81d5-40eb-84c2-8995b0d36b0b" data-name="Photo"><rect class="eb6212c4-65a6-40e6-950a-b3b518126c1a" x="19.04" y="7.75" width="18.74" height="11.88"/><path class="ba0f8ad8-cb7d-453b-8379-675942e29cff" d="M41.11,19.9V6.57a2.22,2.22,0,0,0-2.22-2.23h-20a2.23,2.23,0,0,0-2.22,2.23V19.9a2.22,2.22,0,0,0,2.22,2.22h20A2.21,2.21,0,0,0,41.11,19.9ZM25,13.79l2.77,3.34,3.89-5,5,6.67H21.11Z"/></g><g id="b4c6bbf1-b6cd-47f3-b9f8-1e41fcb0af8c" data-name="Camera"><rect id="af8e3d23-ade0-41cb-b6bc-164c76b6b8f6" data-name="Camera BG" class="f7143da4-de75-4020-bdf3-09299cd3d6fb" x="9.21" y="24.16" width="18.29" height="13.63"/><circle id="b9780159-0cb1-4c12-b95d-9af3121614ac" data-name="Camera Body 2" class="fee30eb5-4f40-4781-a1b7-7e0284fa7049" cx="17.66" cy="31.06" r="3.87"/><path id="b737cc03-621e-43df-b9b5-9d5c785bc35a" data-name="Camera Body" class="b5248e11-741a-49f4-a4ab-79500002ad89" d="M14,19l-2.22,2.42H8a2.42,2.42,0,0,0-2.42,2.42V38.32A2.42,2.42,0,0,0,8,40.74H27.34a2.42,2.42,0,0,0,2.43-2.42V23.79a2.43,2.43,0,0,0-2.43-2.42H23.51L21.29,19Zm3.63,18.16a6.06,6.06,0,1,1,6.05-6.05A6.05,6.05,0,0,1,17.66,37.11Z"/></g><path id="ed4c5a4f-0daf-4694-9e8b-00e1c79e963a" data-name="Brush" class="b1564645-a81a-4ce3-ac7e-a5b5c887a072" d="M27.4,35.05a3.63,3.63,0,0,0-3.17,4,2.46,2.46,0,0,1-2.12,2.7,6.28,6.28,0,0,0,5.1,1.83,4.85,4.85,0,0,0,4.24-5.39A3.64,3.64,0,0,0,27.4,35.05ZM42.54,21.8l-1.8-1.42a1.21,1.21,0,0,0-1.7.21L29.56,32.66l3.7,2.91L42.75,23.5A1.21,1.21,0,0,0,42.54,21.8Z"/><rect class="f9ca1a17-902e-4302-8f00-424b4e2b9252" width="48" height="48" rx="10.03"/></g></g></g></g></svg>