<svg xmlns="http://www.w3.org/2000/svg" xmlns:xlink="http://www.w3.org/1999/xlink" viewBox="0 0 48 48"><defs><style>.e5f5721c-3f0a-42f8-9ba0-1bb9759df792{isolation:isolate;}.f84cfa40-89ef-492b-843e-a3864aef7a8c{fill:url(#bfe232e4-c8c5-4249-a289-a00290aa2b3d);}.a27972de-724a-4530-a554-99ba6d9c7c0c{fill:#7a2016;}.fa9af5d2-3c4b-4607-91da-9e99cce4e469{fill:url(#a523ca42-9ae7-40aa-9f87-5b58d0650b71);}.b083ed8c-20b2-491b-844a-6f42dac6c083{fill:url(#aa6b5d34-a57f-4688-bdb3-38e3b1b74a5d);}.a49f3681-ad08-4a58-9431-c46cfa5ca775{fill:url(#e2403be7-112e-42e2-b61b-8dcabafe2fd8);}.b6035d80-198a-4889-b181-ee5b5230c334{fill:url(#e967840e-34cc-46f5-a2f5-baf06ac5c0b2);}.a27af6c1-4f2d-43c2-9e42-c99372e55514{fill:url(#a4effc85-37a2-4ad2-980f-e13c002248c9);}.a6ca718e-b4b7-4fe9-82ca-a633f157abb8{fill:url(#aa70baae-8069-4f38-a71d-4fee48b41031);}.ad507700-1da4-474c-9639-81064d32ba62{opacity:0.2;mix-blend-mode:hard-light;fill:url(#e0bd6252-fa6b-44a0-a2aa-24520117a162);}</style><radialGradient id="bfe232e4-c8c5-4249-a289-a00290aa2b3d" cx="24" cy="24" r="52.64" gradientUnits="userSpaceOnUse"><stop offset="0" stop-color="#330510"/><stop offset="1" stop-color="#cc714b"/></radialGradient><linearGradient id="a523ca42-9ae7-40aa-9f87-5b58d0650b71" x1="2.2" y1="24.32" x2="27.63" y2="24.32" gradientUnits="userSpaceOnUse"><stop offset="0" stop-color="#cc714b"/><stop offset="1" stop-color="#7a2016"/></linearGradient><linearGradient id="aa6b5d34-a57f-4688-bdb3-38e3b1b74a5d" x1="9.03" y1="21.4" x2="38.71" y2="33.26" gradientUnits="userSpaceOnUse"><stop offset="0" stop-color="#107c80"/><stop offset="1" stop-color="#143f4d"/></linearGradient><linearGradient id="e2403be7-112e-42e2-b61b-8dcabafe2fd8" x1="17.03" y1="12.4" x2="39.31" y2="25.29" gradientUnits="userSpaceOnUse"><stop offset="0" stop-color="#fff6e4"/><stop offset="1" stop-color="#ffc48e"/></linearGradient><linearGradient id="e967840e-34cc-46f5-a2f5-baf06ac5c0b2" x1="21.52" y1="37.74" x2="33.38" y2="41.39" gradientUnits="userSpaceOnUse"><stop offset="0" stop-color="#cae6e1"/><stop offset="1" stop-color="#63b3af"/></linearGradient><linearGradient id="a4effc85-37a2-4ad2-980f-e13c002248c9" x1="21" y1="40.66" x2="32.88" y2="44.25" xlink:href="#e967840e-34cc-46f5-a2f5-baf06ac5c0b2"/><linearGradient id="aa70baae-8069-4f38-a71d-4fee48b41031" x1="21.41" y1="43.56" x2="35.86" y2="48.91" xlink:href="#aa6b5d34-a57f-4688-bdb3-38e3b1b74a5d"/><linearGradient id="e0bd6252-fa6b-44a0-a2aa-24520117a162" y1="24" x2="48" y2="24" gradientUnits="userSpaceOnUse"><stop offset="0" stop-color="#42001a"/><stop offset="1" stop-color="#a59196"/></linearGradient></defs><g class="e5f5721c-3f0a-42f8-9ba0-1bb9759df792"><g id="a2876e51-950e-4a40-a628-a2a129585576" data-name="Layer 2"><g id="a30c35f6-404f-450f-b9de-bc07301bfe57" data-name="Burg Icons"><g id="a75938b1-6387-4dd6-bb35-528ce8a6c700" data-name="Icon 1 Teal"><rect class="f84cfa40-89ef-492b-843e-a3864aef7a8c" width="48" height="48" rx="10.03"/><path class="a27972de-724a-4530-a554-99ba6d9c7c0c" d="M30.43,41.28l-.57-.13a.81.81,0,0,1,.1.21Z"/><path class="a27972de-724a-4530-a554-99ba6d9c7c0c" d="M27.8,37.49l-.58-.14-2.75.48,3.08.72,3.43.81a4.34,4.34,0,0,1,.12-1.11Z"/><path class="fa9af5d2-3c4b-4607-91da-9e99cce4e469" d="M22.11,42.32l-1.66-.39L20.91,40l6,1.4.26.06a1.47,1.47,0,0,1,.49-.83l-.54-.12-6-1.41.17-.7-9.67,1.69a.43.43,0,0,1-.5-.35L6.27,12.07a.44.44,0,0,1,.35-.5L22.1,8.86A13.3,13.3,0,0,1,25.05,5.6a9.82,9.82,0,0,1-.42-1.68l-1.2.21a1.45,1.45,0,0,1-2.85.5L18.39,5a1.45,1.45,0,0,1-2.85.5l-2.19.39a1.45,1.45,0,0,1-2.85.5l-2.19.38a1.45,1.45,0,0,1-2.85.5l-1.2.21c.4,2.24.29,4.15-1.66,4.76a.54.54,0,0,0-.39.62L7,40.36a.55.55,0,0,0,.58.45c2-.08,2.79,1.68,3.18,3.91l1.2-.2A1.44,1.44,0,0,1,13.31,43,1.46,1.46,0,0,1,14.84,44L17,43.63a1.45,1.45,0,0,1,2.85-.5l2.19-.38A1.53,1.53,0,0,1,22.11,42.32Z"/><path class="b083ed8c-20b2-491b-844a-6f42dac6c083" d="M22,36.1,22.5,34c-.73-1.19-.32-2.93,0-4.11.86-2.54-.5-6.92-1.1-8.63-.15-.36-.29-.74-.39-1.06l-.33-.84.06-.05A13.29,13.29,0,0,1,20.65,13a12.49,12.49,0,0,1,.81-2.37L8.3,12.93a.43.43,0,0,0-.35.5l4.35,24.8a.42.42,0,0,0,.5.35l11.31-2L23,36.33Z"/><path class="a49f3681-ad08-4a58-9431-c46cfa5ca775" d="M45.43,18.82A13.5,13.5,0,0,0,36,2.9a13.49,13.49,0,0,0-15.56,10,13.29,13.29,0,0,0,.06,6.33l-.06.05.32.84a10.18,10.18,0,0,0,.4,1.06c.6,1.71,2,6.09,1.09,8.63-.28,1.18-.69,2.92,0,4.12l-.49,2.08,1,.23,5.11,1.22L33,38.68l1,.23.49-2.09c1.18-.74,1.59-2.49,1.86-3.67.36-2.66,3.53-6,4.82-7.24a10.73,10.73,0,0,0,.83-.77l.67-.61,0-.07A13.36,13.36,0,0,0,45.43,18.82Z"/><polygon class="b6035d80-198a-4889-b181-ee5b5230c334" points="27.59 38.56 21.61 37.16 21.15 39.11 27.13 40.51 33.1 41.91 33.56 39.97 27.59 38.56"/><polygon class="a27af6c1-4f2d-43c2-9e42-c99372e55514" points="20.94 40 20.49 41.95 26.46 43.35 32.44 44.76 32.89 42.81 26.92 41.41 20.94 40"/><path class="a6ca718e-b4b7-4fe9-82ca-a633f157abb8" d="M26.21,44.41l-5-1.18-.15.65c-.17.72.6,1.52,1.73,1.78l3,.69,2.95.7c1.13.26,2.18-.11,2.35-.82l.15-.65Z"/><rect class="ad507700-1da4-474c-9639-81064d32ba62" width="48" height="48" rx="10.03"/></g></g></g></g></svg>