<svg xmlns="http://www.w3.org/2000/svg" xmlns:xlink="http://www.w3.org/1999/xlink" viewBox="0 0 48 48"><defs><style>.b543e9a0-b79f-460f-b3c7-2a0a0914aac2{isolation:isolate;}.b3f4f08d-fccf-469d-a040-5588c8f8dec1{fill:url(#ed599100-2d2e-43e7-845d-ec782b97a5ab);}.fb8eb710-e3cf-485b-84b0-bcb8903498c3{fill:#107c80;}.e0f02ff9-92d0-4da4-958c-aab7d7099fb0{fill:url(#afab24bb-0ac8-4ac1-9cdd-0c5d6ea30f90);}.b5d53062-e745-4196-8a22-f1682b4fc3bb,.e0d133ea-620d-4613-8a54-28e05de82eb8,.f2dcb929-b958-4ec0-8fcb-93adf77e00c7{opacity:0.9;}.e0d133ea-620d-4613-8a54-28e05de82eb8{fill:url(#aab9c588-a448-4b67-acf7-cadaf389cbec);}.ad7182a2-af69-4d14-9f7c-7c5051ed203a{fill:url(#a12ec184-ee1f-44cf-87f3-4de8a6dc7df2);}.e954abbf-217a-450b-a201-ede88cc8b819{fill:url(#e91e9884-d947-45e8-b1fa-fecc5a4f63fb);}.e17b686b-2891-4d90-84ad-9f2a3e44daa4{fill:url(#a7bbbf7e-8b1b-4f0e-8883-151e179b5500);}.f2dcb929-b958-4ec0-8fcb-93adf77e00c7{fill:url(#bb455df9-5df0-43dd-a98b-44e0cac90cdb);}.bc3b8470-a3bb-429a-8453-b4f599222842{opacity:0.1;mix-blend-mode:hard-light;fill:url(#bc8183db-4536-413d-95a6-24a5e53f0c71);}</style><linearGradient id="ed599100-2d2e-43e7-845d-ec782b97a5ab" x1="-0.75" y1="48.75" x2="52.17" y2="-4.17" gradientUnits="userSpaceOnUse"><stop offset="0" stop-color="#0c1626"/><stop offset="0.61" stop-color="#0e535c"/><stop offset="1" stop-color="#107c80"/></linearGradient><linearGradient id="afab24bb-0ac8-4ac1-9cdd-0c5d6ea30f90" x1="2.2" y1="24.32" x2="27.63" y2="24.32" gradientUnits="userSpaceOnUse"><stop offset="0" stop-color="#63b3af"/><stop offset="1" stop-color="#107c80"/></linearGradient><linearGradient id="aab9c588-a448-4b67-acf7-cadaf389cbec" x1="9.03" y1="21.4" x2="38.71" y2="33.26" gradientUnits="userSpaceOnUse"><stop offset="0" stop-color="#cc714b"/><stop offset="1" stop-color="#661818"/></linearGradient><linearGradient id="a12ec184-ee1f-44cf-87f3-4de8a6dc7df2" x1="17.03" y1="12.4" x2="39.31" y2="25.29" gradientUnits="userSpaceOnUse"><stop offset="0" stop-color="#ebfff8"/><stop offset="1" stop-color="#63b3af"/></linearGradient><linearGradient id="e91e9884-d947-45e8-b1fa-fecc5a4f63fb" x1="21.52" y1="37.74" x2="33.38" y2="41.39" gradientUnits="userSpaceOnUse"><stop offset="0" stop-color="#fff6e4"/><stop offset="1" stop-color="#ffc48e"/></linearGradient><linearGradient id="a7bbbf7e-8b1b-4f0e-8883-151e179b5500" x1="21" y1="40.66" x2="32.88" y2="44.25" xlink:href="#e91e9884-d947-45e8-b1fa-fecc5a4f63fb"/><linearGradient id="bb455df9-5df0-43dd-a98b-44e0cac90cdb" x1="21.41" y1="43.56" x2="35.86" y2="48.91" xlink:href="#aab9c588-a448-4b67-acf7-cadaf389cbec"/><linearGradient id="bc8183db-4536-413d-95a6-24a5e53f0c71" y1="24" x2="48" y2="24" gradientUnits="userSpaceOnUse"><stop offset="0" stop-color="#42001a"/><stop offset="1" stop-color="#a59196"/></linearGradient></defs><g class="b543e9a0-b79f-460f-b3c7-2a0a0914aac2"><g id="abe954c0-3c25-4c00-918c-68da2e1262fc" data-name="Layer 2"><g id="bde8427e-215c-47be-82fe-ebf4531270b6" data-name="Teal Icons Logos"><g id="e6c9bc56-29ec-4ba7-8b6c-9df8c08a7cf1" data-name="Icon 1 Burg"><rect class="b3f4f08d-fccf-469d-a040-5588c8f8dec1" width="48" height="48" rx="10"/><path class="fb8eb710-e3cf-485b-84b0-bcb8903498c3" d="M27.8,37.49l-.58-.14-2.75.48,3.08.72,3.43.81a4.34,4.34,0,0,1,.12-1.11Z"/><path class="e0f02ff9-92d0-4da4-958c-aab7d7099fb0" d="M22.11,42.32l-1.66-.39L20.91,40l6,1.4.26.06a1.47,1.47,0,0,1,.49-.83l-.54-.12-6-1.41.17-.7-9.67,1.69a.43.43,0,0,1-.5-.35L6.27,12.07a.44.44,0,0,1,.35-.5L22.1,8.86A13.3,13.3,0,0,1,25.05,5.6a9.82,9.82,0,0,1-.42-1.68l-1.2.21a1.45,1.45,0,0,1-2.85.5L18.39,5a1.45,1.45,0,0,1-2.85.5l-2.19.39a1.45,1.45,0,0,1-2.85.5l-2.19.38a1.45,1.45,0,0,1-2.85.5l-1.2.21c.4,2.24.29,4.15-1.66,4.76a.54.54,0,0,0-.39.62L7,40.36a.55.55,0,0,0,.58.45c2-.08,2.79,1.68,3.18,3.91l1.2-.2A1.44,1.44,0,0,1,13.31,43,1.46,1.46,0,0,1,14.84,44L17,43.63a1.45,1.45,0,0,1,2.85-.5l2.19-.38A1.53,1.53,0,0,1,22.11,42.32Z"/><path class="e0d133ea-620d-4613-8a54-28e05de82eb8" d="M22,36.1,22.5,34c-.73-1.19-.32-2.93,0-4.11.86-2.54-.5-6.92-1.1-8.63-.15-.36-.29-.74-.39-1.06l-.33-.84.06-.05A13.29,13.29,0,0,1,20.65,13a12.49,12.49,0,0,1,.81-2.37L8.3,12.93a.43.43,0,0,0-.35.5l4.35,24.8a.42.42,0,0,0,.5.35l11.31-2L23,36.33Z"/><path class="ad7182a2-af69-4d14-9f7c-7c5051ed203a" d="M45.43,18.82A13.5,13.5,0,0,0,36,2.9a13.49,13.49,0,0,0-15.56,10,13.29,13.29,0,0,0,.06,6.33l-.06.05.32.84a10.18,10.18,0,0,0,.4,1.06c.6,1.71,2,6.09,1.09,8.63-.28,1.18-.69,2.92,0,4.12l-.49,2.08,1,.23,5.11,1.22L33,38.68l1,.23.49-2.09c1.18-.74,1.59-2.49,1.86-3.67.36-2.66,3.53-6,4.82-7.24a10.73,10.73,0,0,0,.83-.77l.67-.61,0-.07A13.36,13.36,0,0,0,45.43,18.82Z"/><g class="b5d53062-e745-4196-8a22-f1682b4fc3bb"><polygon class="e954abbf-217a-450b-a201-ede88cc8b819" points="27.59 38.56 21.61 37.16 21.15 39.11 27.13 40.51 33.1 41.91 33.56 39.97 27.59 38.56"/><polygon class="e17b686b-2891-4d90-84ad-9f2a3e44daa4" points="20.94 40 20.49 41.95 26.46 43.35 32.44 44.76 32.89 42.81 26.92 41.41 20.94 40"/></g><path class="f2dcb929-b958-4ec0-8fcb-93adf77e00c7" d="M26.21,44.41l-5-1.18-.15.65c-.17.72.6,1.52,1.73,1.78l3,.69,2.95.7c1.13.26,2.18-.11,2.35-.82l.15-.65Z"/><rect class="bc3b8470-a3bb-429a-8453-b4f599222842" width="48" height="48" rx="10.03"/></g></g></g></g></svg>