<svg xmlns="http://www.w3.org/2000/svg" viewBox="0 0 706.68 394.14"><defs><style>.b487835a-c54a-43dd-a901-bdce9370b13a,.b6ed2ddb-a19e-42c9-b7ea-daf45b129971,.f621b8c7-3939-4258-9999-5ca003cafc48{opacity:0.87;font-size:81.38px;stroke:#0f777a;stroke-miterlimit:10;font-family:BigJohnPRO-Regular, Big John PRO;}.a6725ac7-8cea-47f2-b764-87b449f65ea7,.b487835a-c54a-43dd-a901-bdce9370b13a,.b6ed2ddb-a19e-42c9-b7ea-daf45b129971,.f621b8c7-3939-4258-9999-5ca003cafc48,.fd5b7b21-b94c-4992-b59f-3f05c76a8300{fill:#0f787b;}.f621b8c7-3939-4258-9999-5ca003cafc48{letter-spacing:0.04em;}.b487835a-c54a-43dd-a901-bdce9370b13a{letter-spacing:0.04em;}.be2db5a4-0df7-4bfe-94c7-5d845160be6b{letter-spacing:0em;}.a88353a6-4397-4f25-8dc8-7f813d114f48{letter-spacing:0.04em;}.b6ed2ddb-a19e-42c9-b7ea-daf45b129971{letter-spacing:0.04em;}.b2152c49-4fe3-42d6-86c7-0cbc0782997d,.e23723c1-930e-4f3e-b76b-015f7c15e42f,.fef65c7d-c655-4b09-8fa9-6f438a983653{fill:#7a2016;}.eef18c4e-9619-4d39-ac83-0c9a289410ae{font-size:69.36px;fill:#0f777a;letter-spacing:-0.05em;}.eef18c4e-9619-4d39-ac83-0c9a289410ae,.fef65c7d-c655-4b09-8fa9-6f438a983653{font-family:AzonixRegular, Azonix;}.a428ba59-b90d-4d67-b46a-9abd53c7b825,.e23723c1-930e-4f3e-b76b-015f7c15e42f{letter-spacing:0.04em;}.fef65c7d-c655-4b09-8fa9-6f438a983653{font-size:209.41px;letter-spacing:-0.18em;}.fd5b7b21-b94c-4992-b59f-3f05c76a8300{letter-spacing:-0.04em;}.a15859f5-ac07-44d6-91a4-731196e7c9bd{letter-spacing:-0.04em;}</style></defs><g id="ab7afb08-21b9-458c-850d-7edd1533f361" data-name="Layer 2"><g id="b4f2236e-3bf1-4d95-91fa-8faabe9e879c" data-name="Full Logo"><text class="f621b8c7-3939-4258-9999-5ca003cafc48" transform="translate(4.81 365.56)">D</text><text class="b487835a-c54a-43dd-a901-bdce9370b13a" transform="translate(76.59 365.56) scale(0.7)">IGI<tspan class="be2db5a4-0df7-4bfe-94c7-5d845160be6b" x="125.32" y="0">T</tspan><tspan class="a88353a6-4397-4f25-8dc8-7f813d114f48" x="179.68" y="0">AL</tspan></text><text class="b6ed2ddb-a19e-42c9-b7ea-daf45b129971" transform="translate(287.47 365.56)"><tspan xml:space="preserve"> S</tspan></text><text class="b487835a-c54a-43dd-a901-bdce9370b13a" transform="translate(370.39 365.56) scale(0.7)">OLUTIONS</text><path class="b2152c49-4fe3-42d6-86c7-0cbc0782997d" d="M257.26,85a2,2,0,0,1,.59,1,134.47,134.47,0,0,1,10.54,32.25,131.65,131.65,0,0,1,2.31,29.25,135.79,135.79,0,0,1-94.34,124.84,128.78,128.78,0,0,1-18.18,4.41c-4,.67-8,1.15-12,1.5a138.93,138.93,0,0,1-16.45.32c-3.78-.12-7.55-.49-11.3-1a134.25,134.25,0,0,1-26-6,126.56,126.56,0,0,1-45.75-26.78A175.68,175.68,0,0,1,27.78,224.3c-2.62-3.3-5.14-6.67-7.64-10.06a1.37,1.37,0,0,1-.18-1.68c4.34-8.73,8.63-17.49,12.94-26.23q12.62-25.58,25.25-51.13Q68.05,115.15,78,95.1l22.89-46.38q3.54-7.17,7.1-14.34c.12-.25.25-.5.47-.93q31.61,64,63.11,127.73c-.24.2-.48.13-.71.13-7.26,0-14.52,0-21.78,0a1.2,1.2,0,0,1-1.24-.84q-13.08-27-26.2-54.07L108.85,80.1l-.36-.67c-.35.11-.38.41-.49.64L84.57,128.3,54.85,189.5Q48.27,203,41.68,216.56a1.37,1.37,0,0,0,.21,1.75,120.23,120.23,0,0,0,57.2,39.33,113.19,113.19,0,0,0,16.54,4c3.53.57,7.06,1,10.62,1.28a108,108,0,0,0,12.84.33c24.46-.92,46.72-8.38,66.53-22.79A119,119,0,0,0,249,181.86a116.25,116.25,0,0,0,5.18-21.51,118.68,118.68,0,0,0,1.06-23A120.1,120.1,0,0,0,248.61,104a1.63,1.63,0,0,1,0-1.4C251.5,96.76,254.36,90.93,257.26,85Z"/><path class="a6725ac7-8cea-47f2-b764-87b449f65ea7" d="M247.71,68c-4.79-5.78-9.46-11.65-14.49-17.23a122,122,0,0,0-14.15-13.6A132.61,132.61,0,0,0,186.42,18,134.92,134.92,0,0,0,161,10.37c-3.37-.65-6.75-1.2-10.15-1.6a42.21,42.21,0,0,0-5.5-.46,11.73,11.73,0,0,0-3.13-.2,4.1,4.1,0,0,0-1.26,0,5.25,5.25,0,0,0-1.68-.17c-3.89-.08-7.78-.06-11.67.19-2,.14-4.09.27-6.13.48-3.37.36-6.73.81-10.07,1.44-2.35.44-4.72.85-7,1.5a30.73,30.73,0,0,0-5.1,1.29.88.88,0,0,0-.57.18l-.06,0a4.5,4.5,0,0,0-1.4.4,13,13,0,0,0-2,.53A128.86,128.86,0,0,0,70.6,24.45a1.51,1.51,0,0,0-.67.3q-4.47,2.54-8.78,5.35a131.33,131.33,0,0,0-12.76,9.48A136.47,136.47,0,0,0,34.88,52.63,131.88,131.88,0,0,0,23.94,66.42,137.81,137.81,0,0,0,11,89.76a130.64,130.64,0,0,0-5.32,14.51,110.06,110.06,0,0,0-3.17,12.82c-.32,1.85-.76,3.67-.91,5.54l-.06.59a.4.4,0,0,0-.11.45c0,.34-.07.69-.1,1a.16.16,0,0,0-.07.24,5.32,5.32,0,0,0-.16,1.43.21.21,0,0,0-.07.28A115.27,115.27,0,0,0,0,141.5c0,2.93,0,5.86.14,8.78a.69.69,0,0,0,.09.65,72.73,72.73,0,0,0,.7,8.47.89.89,0,0,0,.12.71l.15,1.42a.21.21,0,0,0,.07.27c0,.42,0,.85.11,1.27.48,3,1,6,1.64,9a134.88,134.88,0,0,0,7.31,23.22c.11.26.14.61.49.75.17-.3.32-.58.46-.86,1.92-3.9,3.85-7.8,5.75-11.7,1-2.06,2.1-4.08,3-6.2a.41.41,0,0,0,0-.68.2.2,0,0,0,0-.17,7.05,7.05,0,0,0-.61-2.15c0-.21-.09-.42-.13-.64s0-.15-.09-.2h0a3.57,3.57,0,0,0-.43-1.69.26.26,0,0,0,0-.21,1.61,1.61,0,0,0,0-.31,121,121,0,0,1-2.38-12.82,115.57,115.57,0,0,1-1-12,121.36,121.36,0,0,1,3.27-31.13,117.59,117.59,0,0,1,6.77-20.07,119.92,119.92,0,0,1,16-26.43c2.31-2.91,4.77-5.7,7.33-8.39a128.63,128.63,0,0,1,11-10.14c2.18-1.8,4.43-3.52,6.72-5.16,1.92-1.36,3.93-2.63,6-3.84,1.21-.73,2.46-1.38,3.6-2.23.44-.22.88-.43,1.31-.67a117.92,117.92,0,0,1,11.13-5.43,119.87,119.87,0,0,1,16.91-5.76,24.74,24.74,0,0,0,3.35-.9,4.5,4.5,0,0,0,.63-.07c2.68-.61,5.38-1.07,8.1-1.5A123.38,123.38,0,0,1,135,23.26c1.69,0,3.38,0,5.07.09q3.14.16,6.25.43a114.18,114.18,0,0,1,13.52,2A119.18,119.18,0,0,1,196.28,40,121.41,121.41,0,0,1,218,56.45c2.66,2.54,5.19,5.22,7.65,8a1,1,0,0,1,.15,1.37c-.05.09-.08.19-.13.29l-41.52,85.82c-1,2.13-2.12,4.23-3,6.41h0a2.22,2.22,0,0,0-.46.82q-6.36,13.15-12.71,26.31c-1.44,3-2.87,6-4.3,9a2.54,2.54,0,0,0-.23.34l-6,12.47c-.13.27-.19.61-.55.81-.12-.22-.25-.42-.35-.63-2.21-4.38-4.23-8.85-6.52-13.19-1.39-2.61-2.5-5.37-3.79-8q-4.69-9.75-9.43-19.47t-9.53-19.55c-1.59-3.27-3.15-6.56-4.73-9.84-1.67-3.47-3.37-6.93-5-10.41a1,1,0,0,0-1-.71c-3.14,0-6.29,0-9.44,0s-6.37,0-9.55,0c-.61,0-.78.36-1,.78q-4.29,8.82-8.59,17.65c-.11.21-.29.42-.13.69a3.7,3.7,0,0,0,1.15.07c4.43,0,8.85,0,13.27,0a1.43,1.43,0,0,1,1.52.95c2.32,4.78,4.68,9.53,7,14.28q7.19,14.55,14.39,29.1c1.08,2.18,2.09,4.41,3.3,6.52a7.41,7.41,0,0,0,.91,1.85,21.48,21.48,0,0,0,1.68,3.4c.12.29.24.59.38.87q3.13,6.39,6.28,12.76,9.41,19,18.82,38.07c.11.23.25.45.37.67.33-.18.37-.45.48-.66,1-1.95,1.87-4,2.82-6,.44-.92,1-1.77,1.45-2.68,2-4,4-8.07,6-12.15.69-1.46,1.46-2.87,2.14-4.34,1-2.24,2.2-4.42,3.3-6.63.15-.31.42-.59.27-1,1-1.91,2.09-3.79,3-5.75.64-1.34,1.26-2.7,1.95-4,1.67-3.23,3.21-6.52,4.85-9.77,1.12-2.21,2.17-4.47,3.28-6.69,1.47-2.93,3-5.84,4.31-8.83.48-1.15,1.13-2.22,1.67-3.33Q207,152.16,221.69,122.3c.64-1.31,1.3-2.62,1.94-3.93q7.77-15.74,15.51-31.48,4.32-8.81,8.62-17.62A1,1,0,0,0,247.71,68Z"/><text class="eef18c4e-9619-4d39-ac83-0c9a289410ae" transform="translate(294.57 273.83)">D<tspan class="a428ba59-b90d-4d67-b46a-9abd53c7b825" x="52.02" y="0">yn</tspan><tspan class="e23723c1-930e-4f3e-b76b-015f7c15e42f" x="168.26" y="0">a</tspan><tspan class="a428ba59-b90d-4d67-b46a-9abd53c7b825" x="221.8" y="0">mics</tspan></text><text class="fef65c7d-c655-4b09-8fa9-6f438a983653" transform="translate(292.27 177.99)">A<tspan class="fd5b7b21-b94c-4992-b59f-3f05c76a8300" x="117.06" y="0">V</tspan><tspan class="a15859f5-ac07-44d6-91a4-731196e7c9bd" x="262.59" y="0">O</tspan></text></g></g></svg>