<svg xmlns="http://www.w3.org/2000/svg" viewBox="0 0 706.69 358.2"><defs><style>.a5fa9af7-0481-4746-b869-56de4255e911{fill:#7a2016;}.bfaf7325-de4f-4a09-b69d-629ce49ad672,.f1410132-8a0c-466f-9506-88dec078ffe3{fill:#0f787b;}.afc394f0-5bf0-46e5-add6-bc99aeed7efe{fill:#0f777a;}.e1049bed-fc1a-4c01-a2e0-f3478e75885d{opacity:0.87;}.f1410132-8a0c-466f-9506-88dec078ffe3{stroke:#0f777a;stroke-miterlimit:10;}</style></defs><g id="a8b389eb-be07-4a0f-8ded-9047b91f4d39" data-name="Layer 2"><g id="bac2aae1-2650-4523-9935-7914b8baa17a" data-name="Full Logo"><path class="a5fa9af7-0481-4746-b869-56de4255e911" d="M257.26,77.17a2,2,0,0,1,.59,1,134.69,134.69,0,0,1,10.54,32.26,131.65,131.65,0,0,1,2.31,29.25,135.79,135.79,0,0,1-94.34,124.84,130.17,130.17,0,0,1-18.18,4.41c-4,.67-8,1.15-12,1.5a138.93,138.93,0,0,1-16.45.32c-3.78-.12-7.55-.49-11.3-1a134.25,134.25,0,0,1-26-6A126.56,126.56,0,0,1,46.65,237a175.68,175.68,0,0,1-18.87-20.55c-2.62-3.3-5.14-6.67-7.64-10.06A1.37,1.37,0,0,1,20,204.7c4.34-8.73,8.63-17.49,12.94-26.23q12.62-25.58,25.25-51.13,9.9-20.06,19.81-40.1l22.89-46.38q3.54-7.17,7.1-14.34c.12-.25.25-.5.47-.93q31.61,64,63.11,127.73c-.24.2-.48.13-.71.13-7.26,0-14.52,0-21.78,0a1.2,1.2,0,0,1-1.24-.84q-13.08-27-26.2-54.07L108.85,72.24l-.36-.67c-.35.11-.38.41-.49.64L84.57,120.44l-29.72,61.2q-6.59,13.53-13.17,27.06a1.37,1.37,0,0,0,.21,1.75,120.23,120.23,0,0,0,57.2,39.33,113.19,113.19,0,0,0,16.54,4c3.53.57,7.06,1,10.62,1.28a108,108,0,0,0,12.84.33c24.46-.92,46.72-8.38,66.53-22.79A119,119,0,0,0,249,174a116.25,116.25,0,0,0,5.18-21.51,118.68,118.68,0,0,0,1.06-23,120.1,120.1,0,0,0-6.61-33.38,1.63,1.63,0,0,1,0-1.4C251.5,88.9,254.36,83.07,257.26,77.17Z"/><path class="bfaf7325-de4f-4a09-b69d-629ce49ad672" d="M247.71,60.09c-4.79-5.78-9.46-11.65-14.49-17.23a122,122,0,0,0-14.15-13.6,132.61,132.61,0,0,0-32.65-19.12A134.19,134.19,0,0,0,161,2.51c-3.37-.65-6.75-1.2-10.15-1.6a42.21,42.21,0,0,0-5.5-.46,11.73,11.73,0,0,0-3.13-.2,3.81,3.81,0,0,0-1.26,0A5.25,5.25,0,0,0,139.29,0C135.4,0,131.51,0,127.62.23c-2,.14-4.09.27-6.13.48-3.37.36-6.73.81-10.07,1.44-2.35.44-4.72.85-7,1.5a29.77,29.77,0,0,0-5.1,1.29.88.88,0,0,0-.57.18l-.06,0a4.5,4.5,0,0,0-1.4.4,13,13,0,0,0-2,.53A128.86,128.86,0,0,0,70.6,16.59a1.51,1.51,0,0,0-.67.3q-4.47,2.53-8.78,5.35a131.33,131.33,0,0,0-12.76,9.48A136.47,136.47,0,0,0,34.88,44.77,130.84,130.84,0,0,0,23.94,58.56,137.81,137.81,0,0,0,11,81.9,130.64,130.64,0,0,0,5.66,96.41a110.06,110.06,0,0,0-3.17,12.82c-.32,1.85-.76,3.67-.91,5.54l-.06.59a.4.4,0,0,0-.11.45c0,.34-.07.69-.1,1a.16.16,0,0,0-.07.24,5.32,5.32,0,0,0-.16,1.43.21.21,0,0,0-.07.28,115.27,115.27,0,0,0-1,14.85c0,2.93,0,5.86.14,8.78a.69.69,0,0,0,.09.65,72.73,72.73,0,0,0,.7,8.47.89.89,0,0,0,.12.71l.15,1.42a.21.21,0,0,0,.07.27c0,.42,0,.85.11,1.27.48,3,1,6,1.64,9a134.88,134.88,0,0,0,7.31,23.22c.11.26.14.61.49.75.17-.3.32-.58.46-.86,1.92-3.9,3.85-7.8,5.75-11.7,1-2.06,2.1-4.09,3-6.2a.41.41,0,0,0,0-.68.2.2,0,0,0,0-.17,7.05,7.05,0,0,0-.61-2.15c0-.21-.09-.42-.13-.64s0-.15-.09-.2h0a3.57,3.57,0,0,0-.43-1.69.26.26,0,0,0,0-.21,1.61,1.61,0,0,0,0-.31,121,121,0,0,1-2.38-12.82,115.57,115.57,0,0,1-1-12,121.36,121.36,0,0,1,3.27-31.13,117.29,117.29,0,0,1,6.77-20.07,119.92,119.92,0,0,1,16-26.43c2.31-2.91,4.77-5.7,7.33-8.39a128.63,128.63,0,0,1,11-10.14c2.18-1.8,4.43-3.52,6.72-5.16,1.92-1.36,3.93-2.63,6-3.84,1.21-.73,2.46-1.38,3.6-2.23.44-.22.88-.43,1.31-.67A117.92,117.92,0,0,1,88.43,25a119.87,119.87,0,0,1,16.91-5.76,24.74,24.74,0,0,0,3.35-.9,4.5,4.5,0,0,0,.63-.07c2.68-.61,5.38-1.07,8.1-1.5A123.38,123.38,0,0,1,135,15.4c1.69,0,3.38,0,5.07.09q3.14.16,6.25.43a114.18,114.18,0,0,1,13.52,2,119.18,119.18,0,0,1,36.42,14.2A121.41,121.41,0,0,1,218,48.59c2.66,2.54,5.19,5.22,7.65,8a1,1,0,0,1,.15,1.37c-.05.09-.08.19-.13.29L184.12,144c-1,2.13-2.12,4.23-3,6.41h0a2.22,2.22,0,0,0-.46.82q-6.36,13.16-12.71,26.31c-1.44,3-2.87,6-4.3,9a2.54,2.54,0,0,0-.23.34l-6,12.47c-.13.27-.19.61-.55.81-.12-.22-.25-.42-.35-.63-2.21-4.38-4.23-8.85-6.52-13.19-1.39-2.61-2.5-5.37-3.79-8q-4.69-9.75-9.43-19.47t-9.53-19.55c-1.59-3.27-3.15-6.56-4.73-9.84-1.67-3.47-3.37-6.93-5-10.41a1,1,0,0,0-1-.71c-3.14,0-6.29,0-9.44.05s-6.37,0-9.55-.05c-.61,0-.78.36-1,.78q-4.29,8.82-8.59,17.65c-.11.21-.29.42-.13.69a3.7,3.7,0,0,0,1.15.07c4.43,0,8.85,0,13.27,0a1.43,1.43,0,0,1,1.52.95c2.32,4.78,4.68,9.53,7,14.28q7.19,14.55,14.39,29.1c1.08,2.18,2.09,4.41,3.3,6.52a7.41,7.41,0,0,0,.91,1.85,21.48,21.48,0,0,0,1.68,3.4c.12.29.24.59.38.87q3.13,6.39,6.28,12.76,9.41,19,18.82,38.07c.11.23.25.45.37.67.33-.18.37-.45.48-.66,1-1.95,1.87-4,2.82-6,.44-.92,1-1.77,1.45-2.68,2-4,4-8.07,6-12.15.69-1.46,1.46-2.87,2.14-4.34,1-2.24,2.2-4.42,3.3-6.63.15-.31.42-.59.27-1,1-1.91,2.09-3.79,3-5.75.64-1.34,1.26-2.7,1.95-4,1.67-3.23,3.21-6.52,4.85-9.77,1.12-2.21,2.17-4.47,3.28-6.69,1.47-2.93,3-5.84,4.31-8.83.48-1.15,1.13-2.22,1.67-3.33Q207,144.3,221.69,114.44c.64-1.31,1.3-2.62,1.94-3.93Q231.4,94.78,239.14,79q4.32-8.81,8.62-17.62A1,1,0,0,0,247.71,60.09Z"/><path class="afc394f0-5bf0-46e5-add6-bc99aeed7efe" d="M322.24,217.5a24.21,24.21,0,0,1,18.52,39.87c-.42.49-.9,1-1.39,1.46A23.82,23.82,0,0,1,322.31,266H298V217.43Zm-15.6,39.87h15.6a15.6,15.6,0,0,0,0-31.2h-15.6Z"/><path class="afc394f0-5bf0-46e5-add6-bc99aeed7efe" d="M350,266h.13l-.13.14Zm48.54-48.61L379.74,241.7l-1,1.32V265.9H370V243.16l-1.18-1.46-18.8-24.34h11l13.32,17.27,13.31-17.27ZM398.46,266h.07v.14Z"/><path class="afc394f0-5bf0-46e5-add6-bc99aeed7efe" d="M456.72,217.5V266l-8.67-6.66-31.21-24.06V266h-8.66v-48.4l8.66,6.65,31.21,24.07V217.43Z"/><path class="a5fa9af7-0481-4746-b869-56de4255e911" d="M513,266h-9.71l-4.44-8.67-10.61-20.8-10.61,20.8L473.23,266h-9.71L468,257.3l20.32-39.87L508.6,257.3Z"/><path class="afc394f0-5bf0-46e5-add6-bc99aeed7efe" d="M568.39,217.43V266h-8.67V235l-8.53,6.52L544.11,247,537,241.56,528.51,235V266h-8.67V217.43l8.67,6.66,15.6,12,15.61-12Z"/><path class="afc394f0-5bf0-46e5-add6-bc99aeed7efe" d="M578,266V217.43h8.67V266Z"/><path class="afc394f0-5bf0-46e5-add6-bc99aeed7efe" d="M604.18,241.7a15.62,15.62,0,0,0,15.6,15.6h24.28V266H619.78a24.27,24.27,0,1,1,0-48.54h24.28v8.67H619.78A15.62,15.62,0,0,0,604.18,241.7Z"/><path class="afc394f0-5bf0-46e5-add6-bc99aeed7efe" d="M690.87,230.88v-.28a4.47,4.47,0,0,0-4.44-4.43H666.74a4.47,4.47,0,0,0-4.44,4.43v.28a4.47,4.47,0,0,0,4.44,4.44h17.47a15.23,15.23,0,0,1,11.31,5c.21.21.35.42.55.63a15.32,15.32,0,0,1-11.86,25H669a15.33,15.33,0,0,1-15.33-15.32h8.67A6.66,6.66,0,0,0,669,257.3h15.18a6.66,6.66,0,1,0,0-13.31H666.74a13,13,0,0,1-9.09-3.68,11.67,11.67,0,0,1-1.66-2.08,12.84,12.84,0,0,1-2.29-7.42v-.28a13.08,13.08,0,0,1,13-13.1h19.69a13.13,13.13,0,0,1,13.11,13.1v.28Z"/><path class="a5fa9af7-0481-4746-b869-56de4255e911" d="M444.09,170.13H414.78L401.37,144l-32-62.83-32,62.83-13.4,26.17H294.58L308,144,369.33,23.55,430.69,144Z"/><path class="bfaf7325-de4f-4a09-b69d-629ce49ad672" d="M560.94,23.55l-13.4,26.17L486.18,170.13,424.83,49.72,411.42,23.55h29.32l13.4,26.17,32,62.83,32-62.83,13.41-26.17Z"/><path class="a5fa9af7-0481-4746-b869-56de4255e911" d="M706.69,96.84a73.3,73.3,0,1,1-73.3-73.29A73.37,73.37,0,0,1,706.69,96.84Zm-26.18,0A47.12,47.12,0,1,0,633.39,144,47.19,47.19,0,0,0,680.51,96.84Z"/><g class="e1049bed-fc1a-4c01-a2e0-f3478e75885d"><path class="f1410132-8a0c-466f-9506-88dec078ffe3" d="M14.58,296.67H37.69a30.52,30.52,0,0,1,0,61H14.58ZM37.69,352.9a25.72,25.72,0,0,0,0-51.43H19.38V352.9Z"/><path class="f1410132-8a0c-466f-9506-88dec078ffe3" d="M82.57,315h3.36V357.7H82.57Z"/><path class="f1410132-8a0c-466f-9506-88dec078ffe3" d="M141,336.34a21.41,21.41,0,1,1-6.33-15.15l-2.39,2.39a18.08,18.08,0,0,0-12.76-5.18,18,18,0,1,0,18,19.88H119.54v-3.36H140.9A10.78,10.78,0,0,1,141,336.34Z"/><path class="f1410132-8a0c-466f-9506-88dec078ffe3" d="M152.81,315h3.36V357.7h-3.36Z"/><path class="f1410132-8a0c-466f-9506-88dec078ffe3" d="M181.69,318.34h-15V315h33.49v3.36H185.05V357.7h-3.36Z"/><path class="f1410132-8a0c-466f-9506-88dec078ffe3" d="M236.88,346.25H213.64l-5.35,11.45h-3.65L224.58,315h1.31L246,357.7h-3.76Zm-1.59-3.36-10-21.47-10,21.47Z"/><path class="f1410132-8a0c-466f-9506-88dec078ffe3" d="M256.42,315h3.37v39.36H283v3.36H256.42Z"/><path class="f1410132-8a0c-466f-9506-88dec078ffe3" d="M320.35,342h4.8c0,6,7.32,10.9,14.81,10.9,7.81,0,16-4.31,16-11.8,0-5.13-5.29-11.47-16.2-11.47-9.35,0-19.45-6.92-19.45-16,0-9.44,8.22-16.93,20.1-16.93,10.34,0,20.27,6.35,20.27,15.87h-4.8c0-6.51-7-10.91-15.55-10.91s-15.21,4.72-15.21,11.8c0,4.89,5.12,11.39,15.54,11.39,12.29,0,20.1,8.47,20.1,16.28,0,9.76-9.85,16.6-20.35,16.6C329.13,357.7,320.35,350.3,320.35,342Z"/><path class="f1410132-8a0c-466f-9506-88dec078ffe3" d="M395.74,357.7A21.36,21.36,0,1,1,417,336.34,21.37,21.37,0,0,1,395.74,357.7Zm.06-39.25a17.92,17.92,0,1,0,17.88,17.89A17.85,17.85,0,0,0,395.8,318.45Z"/><path class="f1410132-8a0c-466f-9506-88dec078ffe3" d="M429.18,315h3.36v39.36h23.18v3.36H429.18Z"/><path class="f1410132-8a0c-466f-9506-88dec078ffe3" d="M463.93,340.61V315h3.36v25.63a13.47,13.47,0,1,0,26.94,0V315h3.36v25.63a16.83,16.83,0,1,1-33.66,0Z"/><path class="f1410132-8a0c-466f-9506-88dec078ffe3" d="M520.83,318.34h-15V315h33.49v3.36h-15.1V357.7h-3.36Z"/><path class="f1410132-8a0c-466f-9506-88dec078ffe3" d="M549.77,315h3.36V357.7h-3.36Z"/><path class="f1410132-8a0c-466f-9506-88dec078ffe3" d="M586.63,357.7a21.36,21.36,0,1,1,21.3-21.36A21.37,21.37,0,0,1,586.63,357.7Zm0-39.25a17.92,17.92,0,1,0,17.89,17.89A17.84,17.84,0,0,0,586.68,318.45Z"/><path class="f1410132-8a0c-466f-9506-88dec078ffe3" d="M619.61,315h2.73L652,352.4V315h3.36V357.7H652l-29-36.63V357.7h-3.36Z"/><path class="f1410132-8a0c-466f-9506-88dec078ffe3" d="M666.83,346.71h3.36c0,4.21,5.13,7.63,10.37,7.63,5.47,0,11.17-3,11.17-8.26,0-3.59-3.71-8-11.34-8-6.55,0-13.61-4.84-13.61-11.22,0-6.61,5.75-11.85,14.07-11.85,7.23,0,14.18,4.44,14.18,11.11h-3.36c0-4.56-4.9-7.64-10.88-7.64s-10.65,3.31-10.65,8.26c0,3.42,3.59,8,10.88,8,8.6,0,14.07,5.92,14.07,11.39,0,6.84-6.9,11.62-14.24,11.62C673,357.7,666.83,352.52,666.83,346.71Z"/></g></g></g></svg>