<svg xmlns="http://www.w3.org/2000/svg" viewBox="0 0 1074.97 544.11"><defs><style>.cls-1{fill:#231f20;}.cls-2{fill:#7a2016;}.cls-3{fill:#0f777a;}</style></defs><g id="Layer_2" data-name="Layer 2"><g id="Layer_1-2" data-name="Layer 1"><path class="cls-1" d="M607.87,286.62v0h0v0h0v-.05h0v.06h0Z" transform="translate(0 -11.96)"/><path class="cls-1" d="M608,286.6a0,0,0,0,1-.08,0,0,0,0,0,1,.08,0A0,0,0,0,1,608,286.6Zm0,0s0,0,0,0a0,0,0,0,0,0,0l0,0S607.94,286.61,607.94,286.6Z" transform="translate(0 -11.96)"/><path class="cls-1" d="M608,286.63h0v0h0v0h0v-.08H608s0,0,0,0h0Zm0,0Z" transform="translate(0 -11.96)"/><path class="cls-1" d="M608.06,286.58h0v0h.06v0h0a0,0,0,0,1,0,0v0a0,0,0,0,1,0,0h0v0h-.06Z" transform="translate(0 -11.96)"/><path class="cls-1" d="M608.22,286.56v.08h0v-.05h-.05v.05h0v-.08h0l0,0,0,0Z" transform="translate(0 -11.96)"/><path class="cls-1" d="M608.29,286.64v-.08h0v.08Z" transform="translate(0 -11.96)"/><path class="cls-1" d="M608.38,286.57h0l0,0h0v0h0v-.08h.06Zm0,0h0Z" transform="translate(0 -11.96)"/><path class="cls-1" d="M608.46,286.58h0s0,0,0,0h0a0,0,0,0,1,0,0h0v0h0l0,0h0s0,0,0,0h0Z" transform="translate(0 -11.96)"/><path class="cls-1" d="M608.57,286.56v0a0,0,0,0,1-.08,0v0h0v0l0,0,0,0v0Z" transform="translate(0 -11.96)"/><path class="cls-1" d="M608.66,286.56v.08h0v-.05h0v.05h0v-.08h0l0,0,0,0Z" transform="translate(0 -11.96)"/><path class="cls-2" d="M22.18,463.23H57.33a46.42,46.42,0,0,1,0,92.84H22.18Zm35.15,85.53c21.17-.12,38.5-17.7,38.5-39.11s-17.33-39-38.5-39.11H29.48v78.22Z" transform="translate(0 -11.96)"/><path class="cls-2" d="M129.39,491.08h5.11v65h-5.11Z" transform="translate(0 -11.96)"/><path class="cls-2" d="M218.8,523.57c0,18.63-14.91,32.5-32.76,32.5a32.5,32.5,0,1,1,23.14-55.55l-3.64,3.64a27.52,27.52,0,0,0-19.41-7.88,27.38,27.38,0,1,0,27.38,30.24H186.22v-5.11h32.49A16.63,16.63,0,0,1,218.8,523.57Z" transform="translate(0 -11.96)"/><path class="cls-2" d="M237,491.08h5.11v65H237Z" transform="translate(0 -11.96)"/><path class="cls-2" d="M280.84,496.19H258v-5.11h50.95v5.11H286v59.88h-5.12Z" transform="translate(0 -11.96)"/><path class="cls-2" d="M358.71,538.65H323.35l-8.14,17.42h-5.55l30.33-65h2l30.59,65h-5.72Zm-2.43-5.11L341,500.87l-15.25,32.67Z" transform="translate(0 -11.96)"/><path class="cls-2" d="M388.59,491.08h5.11V551H429v5.12H388.59Z" transform="translate(0 -11.96)"/><path class="cls-2" d="M491.71,532.18H499c0,9.16,11.14,16.58,22.53,16.58,11.88,0,24.26-6.56,24.26-17.94,0-7.8-8-17.46-24.63-17.46-14.24,0-29.58-10.52-29.58-24.38,0-14.36,12.5-25.75,30.57-25.75,15.72,0,30.82,9.66,30.82,24.14h-7.3c0-9.9-10.65-16.59-23.64-16.59s-23.15,7.18-23.15,18c0,7.43,7.8,17.33,23.64,17.33,18.69,0,30.57,12.87,30.57,24.76,0,14.85-15,25.25-30.94,25.25C505.08,556.07,491.71,544.8,491.71,532.18Z" transform="translate(0 -11.96)"/><path class="cls-2" d="M608.27,556.07a32.5,32.5,0,1,1,32.41-32.5A32.51,32.51,0,0,1,608.27,556.07Zm.09-59.71a27.26,27.26,0,1,0,27.2,27.21A27.14,27.14,0,0,0,608.36,496.36Z" transform="translate(0 -11.96)"/><path class="cls-2" d="M660,491.08h5.11V551h35.27v5.12H660Z" transform="translate(0 -11.96)"/><path class="cls-2" d="M709.88,530.07v-39H715v39c0,12.48,9.8,20.8,21,20.8a20.47,20.47,0,0,0,20-20.8v-39h5.11v39c0,15.6-13,26-25.21,26A25.73,25.73,0,0,1,709.88,530.07Z" transform="translate(0 -11.96)"/><path class="cls-2" d="M798.41,496.19H775.54v-5.11h51v5.11h-23v59.88h-5.12Z" transform="translate(0 -11.96)"/><path class="cls-2" d="M842.48,491.08h5.11v65h-5.11Z" transform="translate(0 -11.96)"/><path class="cls-2" d="M899.14,556.07a32.5,32.5,0,1,1,32.4-32.5A32.51,32.51,0,0,1,899.14,556.07Zm.08-59.71a27.26,27.26,0,1,0,27.21,27.21A27.14,27.14,0,0,0,899.22,496.36Z" transform="translate(0 -11.96)"/><path class="cls-2" d="M950.52,491.08h4.16L999.82,548V491.08h5.12v65h-5.12l-44.19-55.72v55.72h-5.11Z" transform="translate(0 -11.96)"/><path class="cls-2" d="M1024.15,539.34h5.12c0,6.42,7.79,11.61,15.77,11.61,8.32,0,17-4.59,17-12.56,0-5.46-5.63-12.22-17.24-12.22-10,0-20.71-7.36-20.71-17.07,0-10.05,8.75-18,21.4-18,11,0,21.58,6.76,21.58,16.89h-5.12c0-6.93-7.45-11.61-16.55-11.61s-16.2,5-16.2,12.57c0,5.2,5.46,12.13,16.55,12.13,13.08,0,21.4,9,21.4,17.33,0,10.4-10.48,17.68-21.66,17.68C1033.51,556.07,1024.15,548.18,1024.15,539.34Z" transform="translate(0 -11.96)"/><path class="cls-2" d="M391.33,129.34a3.15,3.15,0,0,1,.9,1.46,204.19,204.19,0,0,1,16,49,200.72,200.72,0,0,1,3.53,44.51A206.56,206.56,0,0,1,268.27,414.25,197.18,197.18,0,0,1,240.62,421c-6.05,1-12.12,1.75-18.23,2.28a208.93,208.93,0,0,1-25,.49c-5.75-.19-11.48-.74-17.2-1.47a203.2,203.2,0,0,1-39.62-9.08A192.52,192.52,0,0,1,71,372.45a268.09,268.09,0,0,1-28.71-31.26c-4-5-7.81-10.15-11.61-15.3a2.09,2.09,0,0,1-.28-2.55c6.6-13.29,13.13-26.61,19.69-39.91q19.19-38.9,38.4-77.78l30.13-61Q136,109.4,153.41,74.11q5.39-10.9,10.8-21.82l.71-1.4,96,194.29c-.36.3-.74.19-1.08.19-11,0-22.08,0-33.13,0a1.83,1.83,0,0,1-1.89-1.28Q204.93,203,185,161.88l-19.41-40c-.16-.33-.34-.65-.54-1-.54.17-.58.64-.75,1q-17.82,36.67-35.63,73.36Q106,241.71,83.43,288.25q-10,20.6-20,41.16a2.11,2.11,0,0,0,.31,2.67c23.18,28.43,52.09,48.51,87,59.82A169.79,169.79,0,0,0,175.89,398q8,1.3,16.16,2a165.31,165.31,0,0,0,19.53.49c37.2-1.4,71.07-12.74,101.2-34.65q47-34.14,66-89.14a177.48,177.48,0,0,0,7.87-32.72,179.32,179.32,0,0,0,1.61-35,182.37,182.37,0,0,0-10.05-50.78,2.46,2.46,0,0,1,0-2.12C382.56,147.19,386.92,138.31,391.33,129.34Z" transform="translate(0 -11.96)"/><path class="cls-3" d="M376.8,103.36c-7.28-8.79-14.39-17.72-22.05-26.2a184.62,184.62,0,0,0-21.52-20.7,202.42,202.42,0,0,0-49.66-29.08,204.59,204.59,0,0,0-38.66-11.6c-5.12-1-10.26-1.83-15.44-2.43a61.35,61.35,0,0,0-8.35-.71,18.2,18.2,0,0,0-4.77-.31,6.43,6.43,0,0,0-1.91-.06,8.14,8.14,0,0,0-2.55-.25c-5.93-.12-11.85-.1-17.76.29-3.11.21-6.23.41-9.33.73-5.13.54-10.24,1.24-15.31,2.19-3.59.67-7.18,1.29-10.7,2.28a45.94,45.94,0,0,0-7.76,2,1.43,1.43,0,0,0-.87.28l-.08,0a6.93,6.93,0,0,0-2.14.62,19.35,19.35,0,0,0-3.1.81,195.69,195.69,0,0,0-37.44,16,2.28,2.28,0,0,0-1,.45c-4.53,2.57-9,5.3-13.36,8.14A204.15,204.15,0,0,0,73.6,60.21,207,207,0,0,0,53.06,80.06a200,200,0,0,0-16.65,21A210.77,210.77,0,0,0,16.7,136.54a200.34,200.34,0,0,0-8.09,22.07,164.87,164.87,0,0,0-4.82,19.51c-.48,2.8-1.15,5.57-1.39,8.42l-.09.89a.62.62,0,0,0-.16.69c0,.52-.11,1-.16,1.57a.24.24,0,0,0-.1.36,8.44,8.44,0,0,0-.25,2.18.33.33,0,0,0-.11.42A177.86,177.86,0,0,0,0,215.25c0,4.45-.08,8.9.22,13.35a1.06,1.06,0,0,0,.13,1,111.1,111.1,0,0,0,1.07,12.88,1.33,1.33,0,0,0,.18,1.08c.07.72.15,1.44.23,2.16a.32.32,0,0,0,.11.41c.05.64.06,1.29.16,1.93.73,4.56,1.51,9.12,2.5,13.63A204,204,0,0,0,15.74,297c.16.4.2.92.74,1.15.25-.47.48-.89.69-1.32q4.38-8.9,8.75-17.79c1.53-3.14,3.19-6.22,4.56-9.43a.62.62,0,0,0,0-1,.3.3,0,0,0-.05-.26,11.33,11.33,0,0,0-.93-3.27c-.07-.32-.14-.64-.2-1,.07-.15,0-.24-.13-.31h0a5.68,5.68,0,0,0-.66-2.58.47.47,0,0,0,0-.31,3.81,3.81,0,0,0,0-.48,184.11,184.11,0,0,1-3.62-19.49,175.72,175.72,0,0,1-1.46-18.32,182.82,182.82,0,0,1,1.19-25.94,180.13,180.13,0,0,1,14.08-52A182.53,182.53,0,0,1,63,104.51c3.51-4.43,7.24-8.68,11.15-12.76A192.29,192.29,0,0,1,90.83,76.32c3.31-2.74,6.74-5.36,10.23-7.85,2.9-2.08,6-4,9-5.85,1.84-1.1,3.75-2.1,5.48-3.38.67-.34,1.34-.66,2-1A181.17,181.17,0,0,1,134.51,50a183.79,183.79,0,0,1,25.72-8.76,39.11,39.11,0,0,0,5.1-1.36,7.84,7.84,0,0,0,1-.11c4.07-.93,8.19-1.64,12.32-2.28a186,186,0,0,1,26.77-2.06c2.57,0,5.14.08,7.72.13,3.17.17,6.33.4,9.5.67a171.6,171.6,0,0,1,20.56,3.06,180.62,180.62,0,0,1,55.4,21.6,184.17,184.17,0,0,1,33,25c4.06,3.87,7.89,8,11.64,12.11a1.46,1.46,0,0,1,.23,2.09,3.49,3.49,0,0,0-.2.44q-31.58,65.26-63.15,130.55c-1.57,3.23-3.24,6.43-4.61,9.75h0a3.34,3.34,0,0,0-.71,1.24q-9.67,20-19.33,40c-2.2,4.54-4.36,9.1-6.54,13.65a3.71,3.71,0,0,0-.36.52q-4.59,9.48-9.19,19c-.2.41-.29.92-.84,1.22-.19-.33-.38-.64-.54-1-3.35-6.66-6.42-13.46-9.91-20-2.11-4-3.8-8.17-5.76-12.23q-7.14-14.83-14.36-29.62t-14.49-29.73c-2.42-5-4.78-10-7.19-15-2.55-5.28-5.13-10.54-7.67-15.83a1.51,1.51,0,0,0-1.54-1.08c-4.79.06-9.58.06-14.38.08s-9.68,0-14.52-.09c-.93,0-1.18.56-1.49,1.2q-6.54,13.41-13.07,26.84c-.16.32-.43.64-.19,1.06a5.7,5.7,0,0,0,1.75.09c6.73,0,13.46,0,20.19,0a2.2,2.2,0,0,1,2.31,1.45c3.52,7.26,7.11,14.49,10.69,21.72q10.93,22.14,21.89,44.27c1.65,3.32,3.17,6.7,5,9.92a11.47,11.47,0,0,0,1.38,2.81,33.09,33.09,0,0,0,2.55,5.17c.19.44.37.89.58,1.32q4.78,9.72,9.56,19.41l28.62,57.91c.18.35.39.69.58,1,.5-.27.54-.68.72-1,1.59-3,2.84-6.11,4.3-9.15.67-1.39,1.51-2.69,2.2-4.07,3.05-6.15,6.13-12.28,9.07-18.48,1-2.22,2.23-4.37,3.26-6.6,1.57-3.41,3.34-6.73,5-10.09.23-.46.64-.9.42-1.5,1.54-2.91,3.16-5.77,4.58-8.75,1-2,1.92-4.1,3-6.12,2.54-4.91,4.88-9.92,7.37-14.85,1.71-3.38,3.31-6.8,5-10.18,2.23-4.46,4.52-8.89,6.55-13.44.74-1.74,1.72-3.37,2.55-5.06q22.39-45.36,44.7-90.78c1-2,2-4,3-6q11.81-23.94,23.58-47.89c4.39-8.93,8.74-17.87,13.12-26.8C377.23,104.65,377.43,104.12,376.8,103.36Z" transform="translate(0 -11.96)"/><path class="cls-3" d="M490.17,342.79a36.83,36.83,0,0,1,28.17,60.67c-.63.73-1.37,1.47-2.11,2.21a36.25,36.25,0,0,1-26,10.87H453.36V342.69Zm-23.73,60.67h23.73a23.74,23.74,0,0,0,0-47.48H466.44Z" transform="translate(0 -11.96)"/><path class="cls-3" d="M532.38,416.54h.21l-.21.21Zm73.84-74-28.59,37-1.58,2v34.81H562.87v-34.6l-1.8-2.22-28.59-37h16.67l20.26,26.27,20.25-26.27Zm-.1,74h.1v.21Z" transform="translate(0 -11.96)"/><path class="cls-3" d="M694.74,342.79v73.85l-13.19-10.12-47.47-36.61v46.73H620.89V343l13.19,10.13,47.47,36.61V342.69Z" transform="translate(0 -11.96)"/><path class="cls-2" d="M780.41,416.54H765.64l-6.75-13.19L742.74,371.7,726.6,403.35l-6.75,13.19H705.08l6.75-13.19,30.91-60.66,30.92,60.66Z" transform="translate(0 -11.96)"/><path class="cls-3" d="M864.6,342.69v73.85H851.41V369.49l-13,9.91-10.77,8.34-10.76-8.34-13-9.91v47.05H790.75V342.69l13.19,10.13,23.73,18.25,23.74-18.25Z" transform="translate(0 -11.96)"/><path class="cls-3" d="M879.16,416.54V342.69h13.19v73.85Z" transform="translate(0 -11.96)"/><path class="cls-3" d="M919,379.61a23.77,23.77,0,0,0,23.74,23.74H979.7v13.19H942.78a36.93,36.93,0,1,1,0-73.85H979.7v13.19H942.78A23.77,23.77,0,0,0,919,379.61Z" transform="translate(0 -11.96)"/><path class="cls-3" d="M1050.91,363.16v-.43a6.8,6.8,0,0,0-6.75-6.75h-30a6.8,6.8,0,0,0-6.75,6.75v.43a6.8,6.8,0,0,0,6.75,6.75h26.59A23.16,23.16,0,0,1,1058,377.5c.32.32.53.64.85.95a23.32,23.32,0,0,1-18,38.09h-23.11a23.32,23.32,0,0,1-23.31-23.32h13.18a10.14,10.14,0,0,0,10.13,10.13h23.11a10.13,10.13,0,1,0,0-20.26H1014.2a19.73,19.73,0,0,1-13.82-5.59,18.56,18.56,0,0,1-2.53-3.16,19.59,19.59,0,0,1-3.48-11.29v-.42a19.9,19.9,0,0,1,19.83-19.94h30a20,20,0,0,1,19.94,19.94v.42Z" transform="translate(0 -11.96)"/><path class="cls-2" d="M675.53,270.75h-44.6l-20.38-39.81-48.74-95.57-48.74,95.57-20.39,39.81H448.09l20.38-39.81L561.81,47.77l93.33,183.17Z" transform="translate(0 -11.96)"/><path class="cls-3" d="M853.27,47.77,832.88,87.59,739.55,270.75,646.22,87.59,625.83,47.77h44.6l20.38,39.82,48.74,95.56,48.74-95.56,20.38-39.82Z" transform="translate(0 -11.96)"/><path class="cls-2" d="M1075,159.26A111.49,111.49,0,1,1,963.48,47.77,111.61,111.61,0,0,1,1075,159.26Zm-39.82,0a71.68,71.68,0,1,0-71.67,71.68A71.78,71.78,0,0,0,1035.15,159.26Z" transform="translate(0 -11.96)"/><path class="cls-1" d="M480.2,341.43s0,0,0,0v0h-.07v-.08Zm0,.06h0l0,0a0,0,0,0,0,0,0h0Z" transform="translate(0 -11.96)"/><path class="cls-1" d="M480.31,341.43l0,0h0v0h0v0h0l0,0h0l0,0,0,0Zm-.07.08h0Z" transform="translate(0 -11.96)"/></g></g></svg>