<svg xmlns="http://www.w3.org/2000/svg" viewBox="0 0 47.99 48"><defs><style>.fe1df896-a164-4bdd-af0f-8fb048e9df36{fill:#7a2016;}.b4291f74-9b48-4a56-b30f-e6ce9dfda1f7{fill:#0f787b;}</style></defs><g id="ab6069c4-a7d3-4ff1-80de-0b2901ccf807" data-name="Layer 2"><g id="e075bcd3-9ad0-46c8-b73e-2e75f1eb34a0" data-name="Small Logo"><path class="fe1df896-a164-4bdd-af0f-8fb048e9df36" d="M45.6,13.68a.33.33,0,0,1,.1.17,23.81,23.81,0,0,1-.22,20.83A23.93,23.93,0,0,1,28,47.66c-.71.12-1.41.2-2.13.26A23.56,23.56,0,0,1,23,48a19.46,19.46,0,0,1-2-.17,23.53,23.53,0,0,1-4.61-1.06A22.49,22.49,0,0,1,8.27,42a31.31,31.31,0,0,1-3.35-3.65c-.46-.58-.91-1.18-1.35-1.78a.25.25,0,0,1,0-.3c.77-1.54,1.53-3.1,2.29-4.65q2.24-4.53,4.48-9.06l3.51-7.11q2-4.11,4.06-8.22c.41-.85.83-1.69,1.25-2.54,0,0,.05-.09.09-.16L30.4,27.18a.17.17,0,0,1-.12,0H26.42a.22.22,0,0,1-.22-.15l-4.65-9.58c-.75-1.55-1.5-3.11-2.26-4.66l-.06-.12c-.06,0-.07.07-.09.11L15,21.35Q12.35,26.77,9.72,32.2C8.94,33.79,8.17,35.39,7.39,37a.26.26,0,0,0,0,.31,21.27,21.27,0,0,0,10.14,7A19.68,19.68,0,0,0,20.5,45c.62.1,1.25.18,1.88.23a21.58,21.58,0,0,0,2.27.06A21.33,21.33,0,0,0,44.13,30.84,21.05,21.05,0,0,0,45.24,23,21.68,21.68,0,0,0,44.07,17a.28.28,0,0,1,0-.25Z"/><path class="b4291f74-9b48-4a56-b30f-e6ce9dfda1f7" d="M43.91,10.65c-.85-1-1.68-2.06-2.57-3.05a20.4,20.4,0,0,0-2.51-2.41A24,24,0,0,0,28.54.45c-.6-.12-1.2-.22-1.8-.29a6.35,6.35,0,0,0-1-.08,2.12,2.12,0,0,0-.56,0A.81.81,0,0,0,25,0a.77.77,0,0,0-.3,0q-1,0-2.07,0L21.53.13c-.59.06-1.19.14-1.78.25-.42.08-.84.15-1.25.27a4.57,4.57,0,0,0-.9.23.12.12,0,0,0-.1,0h0a.72.72,0,0,0-.25.07,2.12,2.12,0,0,0-.36.1,22.43,22.43,0,0,0-4.37,1.86A.22.22,0,0,0,12.4,3c-.53.3-1.05.62-1.56.95A25,25,0,0,0,8.58,5.62a23.91,23.91,0,0,0-2.4,2.32,22.82,22.82,0,0,0-1.94,2.44A23.84,23.84,0,0,0,2,14.52,23.26,23.26,0,0,0,1,17.09a22.11,22.11,0,0,0-.56,2.27c0,.33-.13.65-.16,1v.11a.06.06,0,0,0,0,.08l0,.18s0,0,0,0a1.15,1.15,0,0,0,0,.26,0,0,0,0,0,0,0A19.52,19.52,0,0,0,0,23.69c0,.52,0,1,0,1.55a.13.13,0,0,0,0,.12,12.65,12.65,0,0,0,.13,1.5.15.15,0,0,0,0,.13l0,.25a.06.06,0,0,0,0,.05.82.82,0,0,0,0,.22c.08.53.17,1.06.29,1.59a24.5,24.5,0,0,0,1.29,4.11s0,.11.09.14.06-.11.08-.16l1-2.07c.18-.36.37-.72.53-1.1.05,0,.05-.08,0-.12a0,0,0,0,0,0,0,1.66,1.66,0,0,0-.11-.38l0-.11s0,0,0,0h0a.82.82,0,0,0-.07-.3,0,0,0,0,0,0,0V29a22.09,22.09,0,0,1-.42-2.27,19.09,19.09,0,0,1-.17-2.14,20.36,20.36,0,0,1,.14-3A19.08,19.08,0,0,1,3.31,19a20.15,20.15,0,0,1,1.2-3.56,20.92,20.92,0,0,1,2.83-4.69c.4-.51.84-1,1.29-1.48a23.62,23.62,0,0,1,1.95-1.8c.39-.32.79-.62,1.2-.92s.69-.46,1.05-.68a6.08,6.08,0,0,0,.64-.39l.23-.12a21.06,21.06,0,0,1,2-1,20.39,20.39,0,0,1,3-1,4,4,0,0,0,.59-.16l.12,0c.47-.1.95-.19,1.43-.26a21.85,21.85,0,0,1,3.12-.24h.9l1.11.08a19.42,19.42,0,0,1,2.39.36A20.89,20.89,0,0,1,34.79,5.7a21.33,21.33,0,0,1,3.84,2.91c.48.45.92.93,1.36,1.41a.18.18,0,0,1,0,.25.08.08,0,0,0,0,.05q-3.69,7.61-7.36,15.21c-.19.38-.38.75-.54,1.14h0c-.05,0-.06.09-.08.14-.76,1.55-1.51,3.11-2.26,4.66-.25.53-.5,1.06-.76,1.59l0,.06c-.36.74-.71,1.48-1.07,2.21a.24.24,0,0,1-.1.15l-.06-.11c-.39-.78-.75-1.57-1.16-2.34-.24-.46-.44-1-.67-1.43-.55-1.15-1.11-2.3-1.67-3.45l-1.69-3.46-.84-1.75c-.29-.61-.6-1.23-.89-1.84,0-.08-.08-.13-.18-.13H17.26c-.11,0-.14.07-.17.14-.51,1-1,2.09-1.52,3.13,0,0-.05.07,0,.12a.74.74,0,0,0,.21,0H18.1a.26.26,0,0,1,.27.17c.41.85.83,1.69,1.24,2.53q1.28,2.58,2.56,5.16c.19.39.37.78.58,1.16a1.37,1.37,0,0,0,.16.32,3.83,3.83,0,0,0,.3.61,1,1,0,0,0,.07.15l1.11,2.26,3.33,6.75a.75.75,0,0,1,.07.12c.06,0,.07-.08.09-.12.18-.35.33-.71.5-1.06.07-.17.17-.32.25-.48.36-.72.72-1.43,1.06-2.15.12-.26.26-.51.38-.77s.39-.79.58-1.18c0-.05.08-.1.05-.17.18-.34.37-.67.54-1s.22-.48.34-.71c.3-.58.57-1.16.86-1.74.2-.39.39-.79.59-1.18s.52-1,.76-1.57c.08-.2.2-.39.3-.59q2.61-5.28,5.2-10.58l.35-.69L42.39,14l1.53-3.13A.18.18,0,0,0,43.91,10.65Z"/></g></g></svg>