<svg xmlns="http://www.w3.org/2000/svg" viewBox="0 0 542.39 542.45"><defs><style>.cls-1{fill:#7a2016;}.cls-2{fill:#0f777a;}</style></defs><g id="Layer_2" data-name="Layer 2"><g id="Layer_1-2" data-name="Layer 1"><path class="cls-1" d="M515.32,154.57a4.25,4.25,0,0,1,1.19,1.92,269.81,269.81,0,0,1,21.1,64.61,264.15,264.15,0,0,1,4.64,58.6,272.08,272.08,0,0,1-189,250.07,261.86,261.86,0,0,1-36.42,8.83c-8,1.33-16,2.3-24,3a276.46,276.46,0,0,1-32.94.65c-7.57-.25-15.12-1-22.65-1.94a267.37,267.37,0,0,1-52.17-12c-34.25-11.55-65-29.13-91.64-53.63a353.32,353.32,0,0,1-37.81-41.16c-5.24-6.62-10.29-13.37-15.3-20.16A2.76,2.76,0,0,1,40,410c8.7-17.49,17.29-35,25.93-52.55q25.28-51.21,50.56-102.42,19.85-40.15,39.69-80.32,22.93-46.44,45.86-92.9,7.09-14.37,14.22-28.74l.93-1.85L343.6,307.12a1.9,1.9,0,0,1-1.42.25c-14.55,0-29.09,0-43.63.05a2.4,2.4,0,0,1-2.49-1.69q-26.21-54.17-52.47-108.3L218,144.71c-.21-.43-.45-.86-.7-1.35-.72.21-.78.83-1,1.29q-23.47,48.3-46.92,96.61L109.86,363.84Q96.71,391,83.49,418.05a2.76,2.76,0,0,0,.41,3.51c30.52,37.44,68.6,63.87,114.6,78.77a223.9,223.9,0,0,0,33.13,8q10.59,1.73,21.27,2.58a218.5,218.5,0,0,0,25.71.65c49-1.85,93.59-16.78,133.28-45.64Q473.71,421,498.75,348.54a233.63,233.63,0,0,0,10.36-43.09,237.15,237.15,0,0,0,2.12-46A239.83,239.83,0,0,0,498,192.54a3.23,3.23,0,0,1,0-2.8C503.78,178.08,509.51,166.39,515.32,154.57Z"/><path class="cls-2" d="M496.2,120.37c-9.6-11.58-19-23.34-29-34.51a244,244,0,0,0-28.34-27.25,265.78,265.78,0,0,0-65.41-38.3A268.77,268.77,0,0,0,322.51,5c-6.74-1.31-13.51-2.4-20.33-3.2a82.58,82.58,0,0,0-11-.93A24,24,0,0,0,284.9.49a8.13,8.13,0,0,0-2.51-.07A10.66,10.66,0,0,0,279,.08c-7.79-.15-15.59-.12-23.38.39-4.09.27-8.2.53-12.28,1-6.76.71-13.49,1.62-20.17,2.87-4.72.89-9.46,1.7-14.09,3A59.68,59.68,0,0,0,198.89,9.9a1.77,1.77,0,0,0-1.15.36l-.11,0a9,9,0,0,0-2.82.82,24.24,24.24,0,0,0-4.08,1.06,258.68,258.68,0,0,0-49.31,21.06,2.9,2.9,0,0,0-1.34.59q-9,5.09-17.59,10.72a266.71,266.71,0,0,0-25.57,19,273.52,273.52,0,0,0-27,26.13A262.26,262.26,0,0,0,48,117.3,276.11,276.11,0,0,0,22,164.06a264.66,264.66,0,0,0-10.67,29.06A216.91,216.91,0,0,0,5,218.81c-.64,3.69-1.53,7.34-1.83,11.08,0,.4-.09.79-.13,1.19a.82.82,0,0,0-.21.9l-.21,2.07a.33.33,0,0,0-.14.48,11.49,11.49,0,0,0-.32,2.87.4.4,0,0,0-.14.54,231.51,231.51,0,0,0-2,29.77c0,5.86-.11,11.72.29,17.57a1.39,1.39,0,0,0,.16,1.31,148.22,148.22,0,0,0,1.41,17A1.85,1.85,0,0,0,2.12,305l.3,2.84a.44.44,0,0,0,.14.54c.07.85.09,1.7.22,2.54,1,6,2,12,3.29,18a269.18,269.18,0,0,0,14.65,46.51c.22.53.27,1.22,1,1.51.32-.61.64-1.17.92-1.74,3.84-7.8,7.7-15.6,11.51-23.42,2-4.13,4.2-8.19,6-12.42a.82.82,0,0,0,0-1.37.37.37,0,0,0-.07-.34,14.91,14.91,0,0,0-1.22-4.3L38.62,332c.1-.2,0-.32-.17-.41h0a7.67,7.67,0,0,0-.86-3.39.61.61,0,0,0-.06-.42,3.29,3.29,0,0,0,0-.63,242.84,242.84,0,0,1-4.76-25.66,229.59,229.59,0,0,1-1.92-24.13A242.14,242.14,0,0,1,37.39,215,236.79,236.79,0,0,1,50.93,174.8a240.69,240.69,0,0,1,32-52.93q6.94-8.75,14.69-16.8a253.42,253.42,0,0,1,22-20.32c4.37-3.61,8.88-7,13.48-10.33,3.83-2.74,7.85-5.27,11.92-7.7a84.71,84.71,0,0,0,7.21-4.46c.88-.44,1.77-.87,2.64-1.34A235.41,235.41,0,0,1,177.14,50,240.29,240.29,0,0,1,211,38.5a51.84,51.84,0,0,0,6.71-1.79c.42-.05.85-.06,1.27-.15,5.36-1.22,10.78-2.16,16.22-3a244.68,244.68,0,0,1,35.25-2.7c3.39,0,6.78.11,10.17.17q6.25.33,12.51.88a224.67,224.67,0,0,1,27.08,4,237.89,237.89,0,0,1,73,28.45,242.29,242.29,0,0,1,43.45,32.95c5.35,5.09,10.4,10.46,15.33,16a1.92,1.92,0,0,1,.31,2.75,3.79,3.79,0,0,0-.26.58q-41.6,86-83.17,171.91c-2.06,4.26-4.26,8.46-6.07,12.85h0a4.2,4.2,0,0,0-.93,1.63q-12.74,26.34-25.46,52.69c-2.89,6-5.74,12-8.6,18a6,6,0,0,0-.48.68q-6,12.5-12.1,25c-.27.55-.38,1.22-1.11,1.62-.25-.44-.5-.85-.71-1.27-4.42-8.77-8.46-17.72-13.06-26.41-2.77-5.23-5-10.75-7.57-16.1q-9.41-19.53-18.91-39T254.73,279c-3.18-6.56-6.29-13.15-9.47-19.72-3.35-6.95-6.76-13.88-10.1-20.84a2,2,0,0,0-2-1.43c-6.31.08-12.62.08-18.92.11s-12.76,0-19.14-.12c-1.21,0-1.55.73-1.95,1.57q-8.61,17.69-17.21,35.35c-.21.43-.57.85-.26,1.39a7.46,7.46,0,0,0,2.31.13c8.86,0,17.72.06,26.58,0a2.89,2.89,0,0,1,3.05,1.92c4.64,9.56,9.37,19.07,14.07,28.6q14.4,29.15,28.83,58.29c2.17,4.37,4.18,8.82,6.61,13.06a15.22,15.22,0,0,0,1.82,3.71,43.49,43.49,0,0,0,3.36,6.81c.25.58.48,1.17.76,1.74l12.59,25.56q18.84,38.13,37.69,76.25c.23.46.51.9.76,1.34.65-.35.72-.89.95-1.32,2.09-3.91,3.74-8,5.66-12,.88-1.83,2-3.54,2.9-5.37,4-8.09,8.08-16.16,12-24.33,1.38-2.92,2.93-5.75,4.29-8.69,2.07-4.49,4.4-8.85,6.61-13.28.3-.62.83-1.19.55-2,2-3.83,4.17-7.6,6-11.52,1.28-2.69,2.53-5.41,3.9-8.06,3.35-6.46,6.43-13.06,9.71-19.56,2.25-4.44,4.35-9,6.58-13.41,2.94-5.86,5.95-11.7,8.63-17.69,1-2.3,2.26-4.43,3.36-6.66Q414.7,289,444.07,229.24c1.29-2.63,2.6-5.24,3.89-7.87Q463.52,189.86,479,158.3c5.78-11.76,11.51-23.53,17.28-35.29C496.76,122.07,497,121.37,496.2,120.37Z"/></g></g></svg>