<svg xmlns="http://www.w3.org/2000/svg" xmlns:xlink="http://www.w3.org/1999/xlink" viewBox="0 0 48 48"><defs><style>.ff77049a-b96d-4f22-97a9-2807ab22747e{isolation:isolate;}.e9b6298e-e3ae-48aa-9b49-f728caff6348{fill:url(#fdde8e8f-3ffb-45bd-9731-d8be544c8e1e);}.a656149c-20b5-4497-9bfe-7a29631be3c6{fill:url(#bf76b8a5-4f2d-46a7-9788-90bcd5088de8);}.afab68b6-336a-48e4-849d-e812da462ee4{fill:url(#fe9ad757-46a8-4a29-8f75-4b651b4f660e);}.a3bd6d02-d7eb-4492-818d-e185b460ff8f{fill:url(#bbc8a043-a49f-42ab-82a8-ec9a89f9b526);}.b9d46a38-aa87-448d-8d66-99ee2d38c642{fill:url(#aa054722-39e1-4091-8453-360941c0755e);}.e48e9c83-5df2-4908-9105-d6411a0cd9a1{fill:url(#e73d46d1-dabc-47df-9d8f-ed7da49f9e64);}.b0132171-df4b-441d-9514-0ca7135a67ba{fill:url(#a317f452-f189-4f15-92c0-343c4a2ff2d1);}.be88579e-e85c-4e4e-97ab-02b26a99ea3f{opacity:0.2;mix-blend-mode:hard-light;fill:url(#f58db870-8bf8-43be-82d3-c2eaccfd5d08);}</style><linearGradient id="fdde8e8f-3ffb-45bd-9731-d8be544c8e1e" x1="2.93" y1="45.07" x2="45.07" y2="2.93" gradientUnits="userSpaceOnUse"><stop offset="0" stop-color="#330510"/><stop offset="0.28" stop-color="#370611"/><stop offset="0.56" stop-color="#430b13"/><stop offset="0.84" stop-color="#571216"/><stop offset="1" stop-color="#661818"/></linearGradient><linearGradient id="bf76b8a5-4f2d-46a7-9788-90bcd5088de8" x1="20.95" y1="41.84" x2="38.77" y2="48.27" gradientUnits="userSpaceOnUse"><stop offset="0" stop-color="#661818"/><stop offset="1" stop-color="#330510"/></linearGradient><linearGradient id="fe9ad757-46a8-4a29-8f75-4b651b4f660e" x1="11.94" y1="36.67" x2="35.83" y2="42.98" gradientUnits="userSpaceOnUse"><stop offset="0" stop-color="#7a2016"/><stop offset="1" stop-color="#661818"/></linearGradient><linearGradient id="bbc8a043-a49f-42ab-82a8-ec9a89f9b526" x1="4.87" y1="28.44" x2="59.32" y2="45.85" gradientUnits="userSpaceOnUse"><stop offset="0" stop-color="#cc714b"/><stop offset="1" stop-color="#7a2016"/></linearGradient><linearGradient id="aa054722-39e1-4091-8453-360941c0755e" x1="-11.21" y1="-0.68" x2="65.7" y2="44.81" gradientUnits="userSpaceOnUse"><stop offset="0" stop-color="#ffc48e"/><stop offset="0.75" stop-color="#fff6e4"/></linearGradient><linearGradient id="e73d46d1-dabc-47df-9d8f-ed7da49f9e64" x1="15.89" y1="24.35" x2="40.99" y2="24.35" gradientTransform="translate(-3.81 5.25) rotate(-10.18)" gradientUnits="userSpaceOnUse"><stop offset="0" stop-color="#661818"/><stop offset="1" stop-color="#cc714b"/></linearGradient><linearGradient id="a317f452-f189-4f15-92c0-343c4a2ff2d1" x1="13.41" y1="17" x2="28.19" y2="17" gradientTransform="matrix(1.25, 0.09, -0.11, 1.44, -8.54, -4.96)" gradientUnits="userSpaceOnUse"><stop offset="0" stop-color="#107c80"/><stop offset="1" stop-color="#63b3af"/></linearGradient><linearGradient id="f58db870-8bf8-43be-82d3-c2eaccfd5d08" y1="24" x2="48" y2="24" gradientUnits="userSpaceOnUse"><stop offset="0" stop-color="#42001a"/><stop offset="1" stop-color="#a59196"/></linearGradient></defs><g class="ff77049a-b96d-4f22-97a9-2807ab22747e"><g id="ad072fe1-7bfc-48f1-beb0-4756826c2bc2" data-name="Layer 2"><g id="ed750c19-30c6-409e-989a-5046f5605351" data-name="Burg Icons"><g id="a57f2f74-da8e-40ab-b46a-91f867074ff4" data-name="Icon 4 Teal"><rect class="e9b6298e-e3ae-48aa-9b49-f728caff6348" width="48" height="48" rx="10"/><path class="a656149c-20b5-4497-9bfe-7a29631be3c6" d="M19.23,41.93H15.55a1,1,0,0,0,0,2.07h17a1,1,0,0,0,0-2.07H19.23Z"/><rect class="afab68b6-336a-48e4-849d-e812da462ee4" x="17.32" y="37.79" width="13.36" height="4.14"/><path class="a3bd6d02-d7eb-4492-818d-e185b460ff8f" d="M3,32.61H45a0,0,0,0,1,0,0V33a4.77,4.77,0,0,1-4.77,4.77H7.77A4.77,4.77,0,0,1,3,33v-.41A0,0,0,0,1,3,32.61Z"/><path class="b9d46a38-aa87-448d-8d66-99ee2d38c642" d="M7.66,5.69H40.34A4.66,4.66,0,0,1,45,10.35V32.61a0,0,0,0,1,0,0H3a0,0,0,0,1,0,0V10.35A4.66,4.66,0,0,1,7.66,5.69Z"/><path class="e48e9c83-5df2-4908-9105-d6411a0cd9a1" d="M31.64,16.21,35.25,19l-5.18,8.16-6.31-4.79L17.24,32.61h3.3l3.95-6.22,6.31,4.8,6.69-10.53,3.61,2.75-1.55-8.62Z"/><path class="b0132171-df4b-441d-9514-0ca7135a67ba" d="M10.69,39.23a.48.48,0,0,1-.2-.07.86.86,0,0,1-.31-.89l2.71-15a.65.65,0,0,0-.52-.79l-2.16-.16a.56.56,0,0,1-.44-.37,1.1,1.1,0,0,1,0-.72L15.13,3.9a.63.63,0,0,1,.59-.52l8.7.66a.59.59,0,0,1,.47.41,1.08,1.08,0,0,1,0,.77l-4.11,9.7a.66.66,0,0,0,.47.95l1.72.13a.6.6,0,0,1,.48.46,1,1,0,0,1-.09.81L11.2,38.89A.57.57,0,0,1,10.69,39.23Z"/><rect class="be88579e-e85c-4e4e-97ab-02b26a99ea3f" width="48" height="48" rx="10.03"/></g></g></g></g></svg>