<svg xmlns="http://www.w3.org/2000/svg" xmlns:xlink="http://www.w3.org/1999/xlink" viewBox="0 0 48 48"><defs><style>.e6106107-c8f5-4a0c-9b4b-c49eccd8234f{isolation:isolate;}.bd2fa8b0-6174-4a8b-b7d2-2ca513978ec8{fill:url(#acd3e259-b4db-4d4c-b51a-bd6effe28630);}.b5b4973e-1932-47ec-9305-941c7191320e{mix-blend-mode:soft-light;}.ad90774f-31b3-4d40-821c-7fb6778df7e1{fill:#63b3af;}.aa25e7dc-0736-4f0b-8de8-e7388802afeb,.ad90774f-31b3-4d40-821c-7fb6778df7e1,.b559985e-d45c-4d79-b63d-057947723706,.b8b2affb-e90f-452e-971d-54533483d458{stroke:#ebfff8;stroke-miterlimit:10;stroke-width:0.2px;}.b8b2affb-e90f-452e-971d-54533483d458{fill:#107c80;}.aa25e7dc-0736-4f0b-8de8-e7388802afeb{fill:#143f4d;}.b559985e-d45c-4d79-b63d-057947723706{fill:#ebfff8;}.ed601da9-3229-4168-bc07-40eb15c1ae0f{opacity:0.33;}.be649cce-728b-4617-85d7-779e85bf32b1{fill:#0c1626;mix-blend-mode:overlay;}</style><linearGradient id="acd3e259-b4db-4d4c-b51a-bd6effe28630" x1="2.93" y1="45.07" x2="45.07" y2="2.93" gradientUnits="userSpaceOnUse"><stop offset="0" stop-color="#0c1626"/><stop offset="0.31" stop-color="#0d1a2a"/><stop offset="0.62" stop-color="#0f2635"/><stop offset="0.93" stop-color="#133a48"/><stop offset="1" stop-color="#143f4d"/></linearGradient></defs><g class="e6106107-c8f5-4a0c-9b4b-c49eccd8234f"><g id="b3a05f8a-c4d4-4b30-9870-06700cf86614" data-name="Layer 2"><g id="b5d27ed6-ceb4-477f-b4ee-2c17a4edd1e9" data-name="Icon 1"><rect class="bd2fa8b0-6174-4a8b-b7d2-2ca513978ec8" width="48" height="48" rx="10"/><g id="ecf53b17-37e0-4f0f-8ae9-85df8854b4ac" data-name="Computer"><g class="b5b4973e-1932-47ec-9305-941c7191320e"><path class="ad90774f-31b3-4d40-821c-7fb6778df7e1" d="M19.23,41.93H15.55a1,1,0,0,0,0,2.07h17a1,1,0,0,0,0-2.07H19.23Z"/><rect class="b8b2affb-e90f-452e-971d-54533483d458" x="17.32" y="37.79" width="13.36" height="4.14"/><path class="aa25e7dc-0736-4f0b-8de8-e7388802afeb" d="M3,32.61H45a0,0,0,0,1,0,0V33a4.77,4.77,0,0,1-4.77,4.77H7.77A4.77,4.77,0,0,1,3,33v-.41A0,0,0,0,1,3,32.61Z"/><path class="b559985e-d45c-4d79-b63d-057947723706" d="M7.66,5.69H40.34A4.66,4.66,0,0,1,45,10.35V32.61a0,0,0,0,1,0,0H3a0,0,0,0,1,0,0V10.35A4.66,4.66,0,0,1,7.66,5.69Z"/></g><g class="ed601da9-3229-4168-bc07-40eb15c1ae0f"><path class="ad90774f-31b3-4d40-821c-7fb6778df7e1" d="M19.23,41.93H15.55a1,1,0,0,0,0,2.07h17a1,1,0,0,0,0-2.07H19.23Z"/><rect class="b8b2affb-e90f-452e-971d-54533483d458" x="17.32" y="37.79" width="13.36" height="4.14"/><path class="aa25e7dc-0736-4f0b-8de8-e7388802afeb" d="M3,32.61H45a0,0,0,0,1,0,0V33a4.77,4.77,0,0,1-4.77,4.77H7.77A4.77,4.77,0,0,1,3,33v-.41A0,0,0,0,1,3,32.61Z"/><path class="b559985e-d45c-4d79-b63d-057947723706" d="M7.66,5.69H40.34A4.66,4.66,0,0,1,45,10.35V32.61a0,0,0,0,1,0,0H3a0,0,0,0,1,0,0V10.35A4.66,4.66,0,0,1,7.66,5.69Z"/></g></g><path class="be649cce-728b-4617-85d7-779e85bf32b1" d="M21.3,32a.41.41,0,0,1-.16,0,.58.58,0,0,1-.3-.6l1.25-10.52a.47.47,0,0,0-.46-.52H19.91a.45.45,0,0,1-.38-.22.67.67,0,0,1-.06-.5L22.71,7.39A.48.48,0,0,1,23.15,7h6.94a.45.45,0,0,1,.39.26.62.62,0,0,1,0,.53L27.82,14.7a.47.47,0,0,0,.44.63h1.37a.47.47,0,0,1,.41.29.67.67,0,0,1,0,.57L21.69,31.74A.45.45,0,0,1,21.3,32Z"/></g></g></g></svg>