<svg xmlns="http://www.w3.org/2000/svg" xmlns:xlink="http://www.w3.org/1999/xlink" viewBox="0 0 48 48"><defs><style>.a23fb044-5cad-4c16-add6-26bed760c9ca{isolation:isolate;}.f14d0bca-0c61-4024-8cfe-07a40ed46d18{fill:url(#ad03361a-435f-429a-a461-fbc92038847d);}.b47af93d-e682-4b91-b70a-cae40661fa06{fill:url(#a81240ae-a607-487a-b6d3-7e07a80bd0ae);}.ecba716b-66d3-459f-9474-6e54b6ddbaa3{fill:url(#f15b000a-9fb9-46ab-9fe2-92c2f2049586);}.f3e9ea24-0250-49b1-b4ba-c872ad58f4f4{fill:url(#f10c5669-910c-48c7-8384-54026f102ee4);}.e1452ade-07a4-4b19-a51b-42a0a533bbc9{fill:url(#ff5d8bdb-4d73-428f-817c-82768aea59e2);}.a02f4887-8d51-4020-a208-249e94015621{fill:url(#b0d4b1d8-67b8-4096-9a96-c55ddc6a5542);}.a9f29fb8-bf0d-42e2-a968-479467eae22d{opacity:0.2;mix-blend-mode:hard-light;fill:url(#bbedfd3d-5758-4476-b93e-d4ac90311693);}.a93cd17c-d39b-4938-bd90-7e58fe1439be{fill:url(#e2862d67-9721-4f4a-bd31-a171a24bceef);}</style><linearGradient id="ad03361a-435f-429a-a461-fbc92038847d" x1="2.93" y1="45.07" x2="45.07" y2="2.93" gradientUnits="userSpaceOnUse"><stop offset="0" stop-color="#0c1626"/><stop offset="0.31" stop-color="#0d1a2a"/><stop offset="0.62" stop-color="#0f2635"/><stop offset="0.93" stop-color="#133a48"/><stop offset="1" stop-color="#143f4d"/></linearGradient><linearGradient id="a81240ae-a607-487a-b6d3-7e07a80bd0ae" x1="20.95" y1="41.84" x2="38.77" y2="48.27" gradientUnits="userSpaceOnUse"><stop offset="0" stop-color="#143f4d"/><stop offset="1" stop-color="#0c1626"/></linearGradient><linearGradient id="f15b000a-9fb9-46ab-9fe2-92c2f2049586" x1="11.94" y1="36.67" x2="35.83" y2="42.98" gradientUnits="userSpaceOnUse"><stop offset="0" stop-color="#107c80"/><stop offset="1" stop-color="#143f4d"/></linearGradient><linearGradient id="f10c5669-910c-48c7-8384-54026f102ee4" x1="4.87" y1="28.44" x2="59.32" y2="45.85" gradientUnits="userSpaceOnUse"><stop offset="0" stop-color="#63b3af"/><stop offset="1" stop-color="#107c80"/></linearGradient><linearGradient id="ff5d8bdb-4d73-428f-817c-82768aea59e2" x1="-11.21" y1="-0.68" x2="65.7" y2="44.81" gradientUnits="userSpaceOnUse"><stop offset="0" stop-color="#63b3af"/><stop offset="0.75" stop-color="#ebfff8"/></linearGradient><linearGradient id="b0d4b1d8-67b8-4096-9a96-c55ddc6a5542" x1="13.75" y1="48.38" x2="38.85" y2="48.38" gradientTransform="translate(-5.95 -18.78) rotate(-10.18)" xlink:href="#f15b000a-9fb9-46ab-9fe2-92c2f2049586"/><linearGradient id="bbedfd3d-5758-4476-b93e-d4ac90311693" y1="24" x2="48" y2="24" gradientUnits="userSpaceOnUse"><stop offset="0" stop-color="#42001a"/><stop offset="1" stop-color="#a59196"/></linearGradient><linearGradient id="e2862d67-9721-4f4a-bd31-a171a24bceef" x1="-12.02" y1="9.92" x2="-0.91" y2="9.92" gradientTransform="matrix(1.25, 0.09, -0.11, 1.44, 25.87, 7.89)" gradientUnits="userSpaceOnUse"><stop offset="0" stop-color="#ffc48e"/><stop offset="1" stop-color="#cc714b"/></linearGradient></defs><g class="a23fb044-5cad-4c16-add6-26bed760c9ca"><g id="e5b6f0ce-bc2f-4658-baaa-b66e23830626" data-name="Layer 2"><g id="ff78ecfe-566a-41e2-9141-837b4d9f9330" data-name="Teal Icons Logos"><g id="a001a026-5d93-4761-8410-0be4e648b0a3" data-name="Icon 4 Burg"><rect class="f14d0bca-0c61-4024-8cfe-07a40ed46d18" width="48" height="48" rx="10"/><path class="b47af93d-e682-4b91-b70a-cae40661fa06" d="M19.23,41.93H15.55a1,1,0,0,0,0,2.07h17a1,1,0,0,0,0-2.07H19.23Z"/><rect class="ecba716b-66d3-459f-9474-6e54b6ddbaa3" x="17.32" y="37.79" width="13.36" height="4.14"/><path class="f3e9ea24-0250-49b1-b4ba-c872ad58f4f4" d="M3,32.61H45a0,0,0,0,1,0,0V33a4.77,4.77,0,0,1-4.77,4.77H7.77A4.77,4.77,0,0,1,3,33v-.41A0,0,0,0,1,3,32.61Z"/><path class="e1452ade-07a4-4b19-a51b-42a0a533bbc9" d="M7.66,5.69H40.34A4.66,4.66,0,0,1,45,10.35V32.61a0,0,0,0,1,0,0H3a0,0,0,0,1,0,0V10.35A4.66,4.66,0,0,1,7.66,5.69Z"/><path class="a02f4887-8d51-4020-a208-249e94015621" d="M31.64,16.21,35.25,19l-5.18,8.16-6.31-4.79L17.24,32.61h3.3l3.95-6.22,6.31,4.8,6.69-10.53,3.61,2.75-1.55-8.62Z"/><rect class="a9f29fb8-bf0d-42e2-a968-479467eae22d" width="48" height="48" rx="10.03"/><path class="a93cd17c-d39b-4938-bd90-7e58fe1439be" d="M10.69,39.23a.48.48,0,0,1-.2-.07.86.86,0,0,1-.31-.89l2.71-15a.65.65,0,0,0-.52-.79l-2.16-.16a.56.56,0,0,1-.44-.37,1.1,1.1,0,0,1,0-.72L15.13,3.9a.63.63,0,0,1,.59-.52l8.7.66a.59.59,0,0,1,.47.41,1.08,1.08,0,0,1,0,.77l-4.11,9.7a.66.66,0,0,0,.47.95l1.72.13a.6.6,0,0,1,.48.46,1,1,0,0,1-.09.81L11.2,38.89A.57.57,0,0,1,10.69,39.23Z"/></g></g></g></g></svg>