<svg xmlns="http://www.w3.org/2000/svg" xmlns:xlink="http://www.w3.org/1999/xlink" viewBox="0 0 480 480"><defs><style>.e39e9cac-cece-41c3-90d3-d1aa5d1fd33b{isolation:isolate;}.a0f98a52-cbf4-4c19-92ee-e812d86e5bbb{opacity:0.3;}.a0dbaac4-30a0-4630-a759-2d360154480a,.a175c6a9-e959-4428-bba2-51410c793490,.a2047400-0112-4f49-bdc8-3919e6205104,.a2a27e52-104a-43aa-985b-19b78eaf3e09,.a57b28d6-0178-4c4d-afcb-058c8fb8076b,.a9eba511-850a-43f6-b363-e3e9ad19d9ea,.a9fc4da2-3286-4903-9347-2f14b7cbab52,.ad8158b1-8653-453d-81a6-19d602991183,.aebfd37d-7db5-416c-9f1e-760a4bc95e00,.b09d0374-edb1-459b-b10d-25cab0e40845,.b9dc8a65-141b-4eee-9fce-820e8a34b788,.bd9f1e53-e061-4511-849b-e7e001ba4840,.bdfdf75a-30b4-4e6f-8c93-e173834730d1,.be1a00a4-f8bd-4d3a-b998-5cefcb09eb7d,.e131afae-1199-4705-aace-fd1c471767f0,.e7174fb6-30f7-4ece-a523-fe69ebb7af25,.f01414ef-5603-4c30-bf42-2a8a13e38f14,.f1991081-fe8b-472e-ba8c-1f0efa444950,.f5a12e78-ebe9-430b-b58c-659e2670d719,.f6a0b04f-b472-411a-82de-fb2de50c3290{fill:none;stroke-miterlimit:10;stroke-width:2px;}.a9eba511-850a-43f6-b363-e3e9ad19d9ea{stroke:url(#fb879175-d15a-43cd-a3bb-1803ab7c8370);}.b9dc8a65-141b-4eee-9fce-820e8a34b788{stroke:url(#beb04cd9-478b-4fef-8c50-7ba74dca94fb);}.a2a27e52-104a-43aa-985b-19b78eaf3e09{stroke:url(#bf54567d-58bc-4b68-9027-14c7c57f2fce);}.f6a0b04f-b472-411a-82de-fb2de50c3290{stroke:url(#bb1ec32a-3b2f-4aa3-991a-3be1152d5c38);}.be1a00a4-f8bd-4d3a-b998-5cefcb09eb7d{stroke:url(#aa33d06b-dbbe-40fd-9fb6-794d94d04668);}.e131afae-1199-4705-aace-fd1c471767f0{stroke:url(#be6bdfc5-f241-4083-8840-05d25f15fc11);}.bd9f1e53-e061-4511-849b-e7e001ba4840{stroke:url(#b6b3aee3-5dd4-4a05-9728-7c6dc514f0c7);}.a175c6a9-e959-4428-bba2-51410c793490{stroke:url(#a30c13e2-7761-438a-91b1-0afdf5d7c0f9);}.f1991081-fe8b-472e-ba8c-1f0efa444950{stroke:url(#f9a6fb9e-8185-4ba1-8944-5bb82d732757);}.f5a12e78-ebe9-430b-b58c-659e2670d719{stroke:url(#a9967d6e-d6f2-4e0a-9bb3-44fec2545540);}.a2047400-0112-4f49-bdc8-3919e6205104{stroke:url(#e47d5788-0a80-4fc7-acea-f6d262de0106);}.b09d0374-edb1-459b-b10d-25cab0e40845{stroke:url(#a1e2eac8-0a4c-49e0-8a25-98493947c3dc);}.f01414ef-5603-4c30-bf42-2a8a13e38f14{stroke:url(#af905d9d-6007-439e-9f6a-10c8d1572b81);}.ad8158b1-8653-453d-81a6-19d602991183{stroke:url(#a1c4d95c-fed4-453a-b001-b304393e2dc3);}.a9fc4da2-3286-4903-9347-2f14b7cbab52{stroke:url(#fe912d68-50a4-435d-80a3-8ae9ea2dedb0);}.a57b28d6-0178-4c4d-afcb-058c8fb8076b{stroke:url(#ae5417c9-0953-4add-84b6-0a8f7b3f59d1);}.aebfd37d-7db5-416c-9f1e-760a4bc95e00{stroke:url(#a3f5b905-2baf-41e9-845d-34ff0dadbb93);}.e7174fb6-30f7-4ece-a523-fe69ebb7af25{stroke:url(#bafa675a-e2a1-4bb5-a2d8-45471e892daf);}.a0dbaac4-30a0-4630-a759-2d360154480a{stroke:url(#abaad4f0-1ded-4c17-9dbe-cf86f5bf895b);}.bdfdf75a-30b4-4e6f-8c93-e173834730d1{stroke:url(#a41bfb96-07dc-470e-85d6-1b397d0877b7);}.ba31b746-0e7d-4931-828e-ff63c4cd372c{opacity:0.8;}.ba31b746-0e7d-4931-828e-ff63c4cd372c,.e1b31447-47fe-4928-948b-fba5cf7e4ff4{mix-blend-mode:hard-light;}.b38524f6-629e-43fc-8fd8-bc032ad17ea1{fill:url(#feb8b6d0-3bc5-41da-b479-e590daf0c0af);}.be8ff8b1-9e76-4479-9a53-1383359ba068{fill:url(#f740fc4f-4d9c-4a88-b449-d3f292d5b4ec);}.b7733c85-1a9b-41f1-8038-0850ddc73141{fill:url(#ad94c35f-189d-47be-b7cf-601c42475a9f);}.bb47d468-cf85-4703-ad2b-57b226e495cf{fill:url(#e4041c52-b4a4-4108-877b-2b522643ddeb);}.bde8d66f-78f8-4356-99fc-b31ac95e02b3{fill:url(#a1150972-fda7-4b8a-80cc-0741c211c234);}.b4fc5be7-805e-4165-8003-6b4f8d690ca5{fill:url(#e9cf938a-d4ad-4c92-9f0e-4705d707c5bd);}.a2f6a583-8f51-4e35-bb53-cc5b4c2a1e48{fill:url(#ad23b1a7-6cb1-461f-92dd-1354e8fbfbb6);}.b7e15585-85a9-492c-9eb7-fb4aeb141198{fill:url(#ad872a7c-e803-4ce1-9288-f5258016aa32);}.e1b31447-47fe-4928-948b-fba5cf7e4ff4{opacity:0.6;}.b8778d7e-e05b-4e90-8507-1387873b1165{fill:#330510;}</style><linearGradient id="fb879175-d15a-43cd-a3bb-1803ab7c8370" y1="436.36" x2="480" y2="436.36" gradientUnits="userSpaceOnUse"><stop offset="0" stop-color="#fff6e4" stop-opacity="0"/><stop offset="0.01" stop-color="#fff2de" stop-opacity="0.07"/><stop offset="0.05" stop-color="#ffe9cd" stop-opacity="0.26"/><stop offset="0.09" stop-color="#ffe0be" stop-opacity="0.44"/><stop offset="0.13" stop-color="#ffd8b1" stop-opacity="0.59"/><stop offset="0.17" stop-color="#ffd2a6" stop-opacity="0.72"/><stop offset="0.21" stop-color="#ffcd9d" stop-opacity="0.82"/><stop offset="0.26" stop-color="#ffc997" stop-opacity="0.9"/><stop offset="0.32" stop-color="#ffc692" stop-opacity="0.96"/><stop offset="0.39" stop-color="#ffc48f" stop-opacity="0.99"/><stop offset="0.5" stop-color="#ffc48e"/><stop offset="0.61" stop-color="#ffc48f" stop-opacity="0.99"/><stop offset="0.68" stop-color="#ffc692" stop-opacity="0.96"/><stop offset="0.74" stop-color="#ffc997" stop-opacity="0.9"/><stop offset="0.79" stop-color="#ffcd9d" stop-opacity="0.82"/><stop offset="0.83" stop-color="#ffd2a6" stop-opacity="0.72"/><stop offset="0.87" stop-color="#ffd8b1" stop-opacity="0.59"/><stop offset="0.91" stop-color="#ffe0be" stop-opacity="0.44"/><stop offset="0.95" stop-color="#ffe9cd" stop-opacity="0.26"/><stop offset="0.99" stop-color="#fff2de" stop-opacity="0.07"/><stop offset="1" stop-color="#fff6e4" stop-opacity="0"/></linearGradient><linearGradient id="beb04cd9-478b-4fef-8c50-7ba74dca94fb" y1="392.73" y2="392.73" xlink:href="#fb879175-d15a-43cd-a3bb-1803ab7c8370"/><linearGradient id="bf54567d-58bc-4b68-9027-14c7c57f2fce" y1="349.09" y2="349.09" xlink:href="#fb879175-d15a-43cd-a3bb-1803ab7c8370"/><linearGradient id="bb1ec32a-3b2f-4aa3-991a-3be1152d5c38" y1="305.45" y2="305.45" xlink:href="#fb879175-d15a-43cd-a3bb-1803ab7c8370"/><linearGradient id="aa33d06b-dbbe-40fd-9fb6-794d94d04668" y1="261.82" y2="261.82" xlink:href="#fb879175-d15a-43cd-a3bb-1803ab7c8370"/><linearGradient id="be6bdfc5-f241-4083-8840-05d25f15fc11" y1="218.18" y2="218.18" xlink:href="#fb879175-d15a-43cd-a3bb-1803ab7c8370"/><linearGradient id="b6b3aee3-5dd4-4a05-9728-7c6dc514f0c7" y1="174.55" y2="174.55" xlink:href="#fb879175-d15a-43cd-a3bb-1803ab7c8370"/><linearGradient id="a30c13e2-7761-438a-91b1-0afdf5d7c0f9" y1="130.91" y2="130.91" xlink:href="#fb879175-d15a-43cd-a3bb-1803ab7c8370"/><linearGradient id="f9a6fb9e-8185-4ba1-8944-5bb82d732757" y1="87.27" y2="87.27" xlink:href="#fb879175-d15a-43cd-a3bb-1803ab7c8370"/><linearGradient id="a9967d6e-d6f2-4e0a-9bb3-44fec2545540" y1="43.64" y2="43.64" xlink:href="#fb879175-d15a-43cd-a3bb-1803ab7c8370"/><linearGradient id="e47d5788-0a80-4fc7-acea-f6d262de0106" x1="87.9" y1="398.91" x2="567.9" y2="398.91" gradientTransform="translate(37.45 567.9) rotate(-90)" xlink:href="#fb879175-d15a-43cd-a3bb-1803ab7c8370"/><linearGradient id="a1e2eac8-0a4c-49e0-8a25-98493947c3dc" x1="87.9" y1="355.28" x2="567.9" y2="355.28" gradientTransform="translate(37.45 567.9) rotate(-90)" xlink:href="#fb879175-d15a-43cd-a3bb-1803ab7c8370"/><linearGradient id="af905d9d-6007-439e-9f6a-10c8d1572b81" x1="87.9" y1="311.64" x2="567.9" y2="311.64" gradientTransform="translate(37.45 567.9) rotate(-90)" xlink:href="#fb879175-d15a-43cd-a3bb-1803ab7c8370"/><linearGradient id="a1c4d95c-fed4-453a-b001-b304393e2dc3" x1="87.9" y1="268" x2="567.9" y2="268" gradientTransform="translate(37.45 567.9) rotate(-90)" xlink:href="#fb879175-d15a-43cd-a3bb-1803ab7c8370"/><linearGradient id="fe912d68-50a4-435d-80a3-8ae9ea2dedb0" x1="87.9" y1="224.37" x2="567.9" y2="224.37" gradientTransform="translate(37.45 567.9) rotate(-90)" xlink:href="#fb879175-d15a-43cd-a3bb-1803ab7c8370"/><linearGradient id="ae5417c9-0953-4add-84b6-0a8f7b3f59d1" x1="87.9" y1="180.73" x2="567.9" y2="180.73" gradientTransform="translate(37.45 567.9) rotate(-90)" xlink:href="#fb879175-d15a-43cd-a3bb-1803ab7c8370"/><linearGradient id="a3f5b905-2baf-41e9-845d-34ff0dadbb93" x1="87.9" y1="137.09" x2="567.9" y2="137.09" gradientTransform="translate(37.45 567.9) rotate(-90)" xlink:href="#fb879175-d15a-43cd-a3bb-1803ab7c8370"/><linearGradient id="bafa675a-e2a1-4bb5-a2d8-45471e892daf" x1="87.9" y1="93.46" x2="567.9" y2="93.46" gradientTransform="translate(37.45 567.9) rotate(-90)" xlink:href="#fb879175-d15a-43cd-a3bb-1803ab7c8370"/><linearGradient id="abaad4f0-1ded-4c17-9dbe-cf86f5bf895b" x1="87.9" y1="49.82" x2="567.9" y2="49.82" gradientTransform="translate(37.45 567.9) rotate(-90)" xlink:href="#fb879175-d15a-43cd-a3bb-1803ab7c8370"/><linearGradient id="a41bfb96-07dc-470e-85d6-1b397d0877b7" x1="87.9" y1="6.18" x2="567.9" y2="6.18" gradientTransform="translate(37.45 567.9) rotate(-90)" xlink:href="#fb879175-d15a-43cd-a3bb-1803ab7c8370"/><radialGradient id="feb8b6d0-3bc5-41da-b479-e590daf0c0af" cx="240.01" cy="240.04" r="58.81" gradientUnits="userSpaceOnUse"><stop offset="0" stop-color="#7a2016"/><stop offset="1" stop-color="#a34931"/></radialGradient><radialGradient id="f740fc4f-4d9c-4a88-b449-d3f292d5b4ec" cx="186.5" cy="158.61" fx="123.40922753630284" fy="202.49188186521275" r="76.85" gradientTransform="matrix(0.95, -0.32, 0.15, 0.45, -14.3, 148.08)" xlink:href="#feb8b6d0-3bc5-41da-b479-e590daf0c0af"/><radialGradient id="ad94c35f-189d-47be-b7cf-601c42475a9f" cx="281.53" cy="324.87" fx="217.13165783854635" fy="293.66105886784663" r="73.66" gradientTransform="matrix(0.82, -0.58, 0.34, 0.48, -58.99, 330.27)" gradientUnits="userSpaceOnUse"><stop offset="0" stop-color="#a34931"/><stop offset="1" stop-color="#7a2016"/></radialGradient><radialGradient id="e4041c52-b4a4-4108-877b-2b522643ddeb" cx="321.43" cy="182.33" fx="254.58242239152656" fy="161.46199991621833" r="70.03" gradientTransform="translate(187.61 -126.42) rotate(49.36) scale(1 0.55)" gradientUnits="userSpaceOnUse"><stop offset="0.05" stop-color="#7a2016"/><stop offset="0.24" stop-color="#83291c"/><stop offset="1" stop-color="#a34931"/></radialGradient><radialGradient id="a1150972-fda7-4b8a-80cc-0741c211c234" cx="161.64" cy="285.67" fx="190.88782841552026" fy="333.65632325531067" r="56.2" gradientTransform="translate(0 -115.35) scale(1 1.4)" xlink:href="#feb8b6d0-3bc5-41da-b479-e590daf0c0af"/><radialGradient id="e9cf938a-d4ad-4c92-9f0e-4705d707c5bd" cx="240.03" cy="240.04" r="18.01" xlink:href="#feb8b6d0-3bc5-41da-b479-e590daf0c0af"/><linearGradient id="ad23b1a7-6cb1-461f-92dd-1354e8fbfbb6" x1="396.78" y1="117.85" x2="346.26" y2="30.34" gradientUnits="userSpaceOnUse"><stop offset="0" stop-color="#7a2016"/><stop offset="1" stop-color="#cc714b"/></linearGradient><linearGradient id="ad872a7c-e803-4ce1-9288-f5258016aa32" x1="331.68" y1="-36.52" x2="417.55" y2="49.35" gradientTransform="matrix(0.93, 0.36, -0.47, 1.23, 47.27, -47.3)" gradientUnits="userSpaceOnUse"><stop offset="0" stop-color="#a34931"/><stop offset="1" stop-color="#cc714b"/></linearGradient></defs><g class="e39e9cac-cece-41c3-90d3-d1aa5d1fd33b"><g id="f43c0869-c829-4cbb-9f70-2a11fd22b02b" data-name="Layer 2"><g id="afd6ec46-a5f8-42ed-b294-43b6346c31fd" data-name="Banner Graphic"><g id="bbc2823f-2eed-42c2-8a48-c203ba2e357b" data-name="Callout 1"><g id="e331eb27-1eac-4c9c-bced-e294e336ef3f" data-name="Grid" class="a0f98a52-cbf4-4c19-92ee-e812d86e5bbb"><line class="a9eba511-850a-43f6-b363-e3e9ad19d9ea" y1="436.36" x2="480" y2="436.36"/><line class="b9dc8a65-141b-4eee-9fce-820e8a34b788" y1="392.73" x2="480" y2="392.73"/><line class="a2a27e52-104a-43aa-985b-19b78eaf3e09" y1="349.09" x2="480" y2="349.09"/><line class="f6a0b04f-b472-411a-82de-fb2de50c3290" y1="305.45" x2="480" y2="305.45"/><line class="be1a00a4-f8bd-4d3a-b998-5cefcb09eb7d" y1="261.82" x2="480" y2="261.82"/><line class="e131afae-1199-4705-aace-fd1c471767f0" y1="218.18" x2="480" y2="218.18"/><line class="bd9f1e53-e061-4511-849b-e7e001ba4840" y1="174.55" x2="480" y2="174.55"/><line class="a175c6a9-e959-4428-bba2-51410c793490" y1="130.91" x2="480" y2="130.91"/><line class="f1991081-fe8b-472e-ba8c-1f0efa444950" y1="87.27" x2="480" y2="87.27"/><line class="f5a12e78-ebe9-430b-b58c-659e2670d719" y1="43.64" x2="480" y2="43.64"/><line class="a2047400-0112-4f49-bdc8-3919e6205104" x1="436.36" y1="480" x2="436.36"/><line class="b09d0374-edb1-459b-b10d-25cab0e40845" x1="392.73" y1="480" x2="392.73"/><line class="f01414ef-5603-4c30-bf42-2a8a13e38f14" x1="349.09" y1="480" x2="349.09"/><line class="ad8158b1-8653-453d-81a6-19d602991183" x1="305.45" y1="480" x2="305.45"/><line class="a9fc4da2-3286-4903-9347-2f14b7cbab52" x1="261.82" y1="480" x2="261.82"/><line class="a57b28d6-0178-4c4d-afcb-058c8fb8076b" x1="218.18" y1="480" x2="218.18"/><line class="aebfd37d-7db5-416c-9f1e-760a4bc95e00" x1="174.55" y1="480" x2="174.55"/><line class="e7174fb6-30f7-4ece-a523-fe69ebb7af25" x1="130.91" y1="480" x2="130.91"/><line class="a0dbaac4-30a0-4630-a759-2d360154480a" x1="87.27" y1="480" x2="87.27"/><line class="bdfdf75a-30b4-4e6f-8c93-e173834730d1" x1="43.64" y1="480" x2="43.64"/></g><g id="fa34fedd-61f9-4208-9693-4be034b266eb" data-name="P{rocess Flow" class="ba31b746-0e7d-4931-828e-ff63c4cd372c"><path class="b38524f6-629e-43fc-8fd8-bc032ad17ea1" d="M298.61,240.3c-.64,2.95,1.88,8.93-2.4,9.42-4.35,1.38-11.94-.81-13.46,4.76-.89,4.37-5.63,8.13-1.1,12,1.47,2.7,7.75,7.15,4.9,10.05-3.19,1.88-10.36,13.49-13.5,10.1-3.61-1.79-7.92-8.44-12.05-6.71-3.08,2.71-9.66,1.81-10.06,6.71-1.28,3.4.67,11.92-4.14,12-3.63-1-16.45,2.26-16.46-2.41-1.32-4.29.79-11.61-4.42-13.4-3.89-.37-7.58-5.42-11.18-2-2.93,1.52-8.47,8.94-11.39,5.62-1.85-3.26-13.18-10.06-10-13.31,1.9-3.82,8.51-7.81,6.67-12.31-4.76-11.81-3.83-9.39-16-11-5,.18-1.6-12.83-2.61-16.54,0-1.93.83-2.65,2.61-2.85,12.57-1.66,11.22.49,16.1-11.33,1.6-4.1-4.92-8.45-6.76-12-3.24-3.33,8.15-10,10-13.31,3-3.39,8.58,4.36,11.63,5.77,3.4,3.08,7.21-1.88,10.94-2.21,5.11-1.81,3.16-8.87,4.42-13.13,0-5.13,12.72-1.64,16.54-2.7,4.74-.09,2.82,8.77,4.06,12,.32,4.84,6.79,3.91,9.79,6.56,4.29,2.08,8.58-4.73,12.31-6.57,3.33-3.38,10.21,8.22,13.51,10.09,3.94,4.17-9.57,10.82-6.58,15.66,2.49,3.16,1.91,9.58,6.76,10,10.53,1.94,12.79-1.75,11.9,11.15Zm-85.3-.27c.35,34.86,53.45,35,53.35-.13C265.87,204.81,214.13,205.24,213.31,240Z"/><path class="be8ff8b1-9e76-4479-9a53-1383359ba068" d="M140.31,199.83c-2.95-.67-12.14,2.2-9-3.3a108.6,108.6,0,0,1,11.51-21.46c21.71-31.61,55.57-50.84,94.05-52,5.49.1,2.08-7.79,3-11.25,0-1.7.61-2.09,1.95-1q12.09,10,24.15,20.09c1.24,1,.91,1.81-.16,2.7-8.55,6.49-16.54,15-25.4,20.49-2.25-2.14,2-13.3-2.84-12.7-26.66,1.22-49.58,10.93-68.34,30.06a94,94,0,0,0-17.85,25.68c-1.86,4.48-7.29,2-11,2.62Z"/><path class="b7733c85-1a9b-41f1-8038-0850ddc73141" d="M349.57,281.5c-18.37,45.06-57.3,73.25-106.11,75.46-6.48-.46-1.29,9.67-3.76,12.79-8.95-5.65-17-14.11-25.63-20.7-4.85-1,21.94-19.65,24-22.44,3.7-3.68,1.71,7.83,2.14,9.58,0,1.78.53,2.54,2.43,2.42,39.12-2.41,67.94-20.74,86-55.64,2.35-5.26,13.64-1.72,18.85-2.7C348.34,280.28,349.53,279.9,349.57,281.5Z"/><path class="bb47d468-cf85-4703-ad2b-57b226e495cf" d="M281.46,130.58c43.65,16.25,74.65,59.71,75.49,106.32-.14,6,9.8,1.07,12.79,3.48-5.64,8.94-14.1,17-20.68,25.62-1.05,4.91-19.8-22.12-22.61-24.2-3.1-3.48,8.23-1.49,10-2,1.74,0,2.3-.73,2.22-2.38-1.18-24.63-9.59-46.3-26.41-64.51a94.63,94.63,0,0,0-29.93-21.86,3.1,3.1,0,0,1-2.07-3.23C280.88,144.75,278.85,130.9,281.46,130.58Z"/><path class="bde8d66f-78f8-4356-99fc-b31ac95e02b3" d="M110.26,239.21c6.55-8.45,13.73-16.47,20.45-24.79,1.15-1.39,2-1.35,3.08,0,6.49,8.5,14.7,16.42,20.39,25.19-2.06,2.47-13.52-2.12-12.74,3.12.92,19.63,6.7,37.64,18,53.78a96.3,96.3,0,0,0,33.36,29.85c5.17,3,1.41,13.31,2.57,18.73.06,2.47-.67,2.89-2.91,1.9-37.18-16.31-63.64-52.25-68.62-92.47-2.3-12.85,4.16-15.15-12.14-14.32C111.09,240.2,110.28,240.37,110.26,239.21Z"/><path class="b4fc5be7-805e-4165-8003-6b4f8d690ca5" d="M258.19,240.13c0,23.82-36.7,23.7-36.31-.32C221.93,216.23,258.45,216.27,258.19,240.13Z"/></g><g id="ba7d3efe-5adc-4a14-8d36-e188275bf264" data-name="Film Icon" class="ba31b746-0e7d-4931-828e-ff63c4cd372c"><path class="a2f6a583-8f51-4e35-bb53-cc5b4c2a1e48" d="M371.52,23.59A50.51,50.51,0,1,0,422,74.1,50.49,50.49,0,0,0,371.52,23.59Zm-20.2,78.29a12.63,12.63,0,1,1,12.62-12.63A12.63,12.63,0,0,1,351.32,101.88Zm7.57-48a12.63,12.63,0,1,1,12.63,12.63A12.64,12.64,0,0,1,358.89,53.89Zm32.83,48a12.63,12.63,0,1,1,12.63-12.63A12.63,12.63,0,0,1,391.72,101.88Z"/><path class="b7e15585-85a9-492c-9eb7-fb4aeb141198" d="M443.53,50.59,438.74,63l-9.42-3.64L434.1,47,403.81,35.26A50.38,50.38,0,0,1,422,74.1c0,1.6-.09,3.18-.24,4.74l2.74-7.09L434,75.39l-4.78,12.4-8.25-3.19a49.81,49.81,0,0,1-4.48,12.52l7.94,3.07-4.78,12.4L410.17,109l1.83-4.73a50.37,50.37,0,0,1-69.34,11.3l-8.18,21.2,9.42,3.64,4.79-12.4,9.42,3.64L353.33,144,391,158.55l4.78-12.4,9.43,3.64-4.79,12.4,9.43,3.63L453,54.22ZM410,137.39l-9.42-3.64,4.79-12.4,9.42,3.64Z"/></g><g id="b3475187-55b4-478c-9bf5-5aed2d8d7ddd" data-name="Numbers" class="e1b31447-47fe-4928-948b-fba5cf7e4ff4"><path class="b8778d7e-e05b-4e90-8507-1387873b1165" d="M247.87,49.7V81.18H239.6V48.84A6.58,6.58,0,0,0,234,43.22h-1.85V35h1.79v.06a15,15,0,0,1,5.62,1.53,14.64,14.64,0,0,1,6.68,6.74,17.23,17.23,0,0,1,1.12,3.11,13.59,13.59,0,0,1,.4,3.37Z"/><path class="b8778d7e-e05b-4e90-8507-1387873b1165" d="M451.47,256.7V265H405.31V251.34a13.08,13.08,0,0,1,1.13-5.35,13.57,13.57,0,0,1,12-8.34h20a5.4,5.4,0,0,0-.46-10.78H405.44v-8.26h32.61a13.6,13.6,0,0,1,13.62,13.62,13.46,13.46,0,0,1-3.9,9.46,13.75,13.75,0,0,1-9.33,4.16h-20a5.39,5.39,0,0,0-4.83,5.36v5.36Z"/><path class="b8778d7e-e05b-4e90-8507-1387873b1165" d="M263.08,414.31a13.59,13.59,0,0,1-3.84,9.53A13.65,13.65,0,0,1,249.46,447H216.85v-8.26h32.61a5.45,5.45,0,0,0,5.42-5.43,5.38,5.38,0,0,0-5.09-5.42h-24.6V419.6h24.6a5.42,5.42,0,0,0-.27-10.84h-32.6v-8.27h32.6a13.61,13.61,0,0,1,13.63,13.62Z"/><path class="b8778d7e-e05b-4e90-8507-1387873b1165" d="M74.62,218.64v46.29H66.36v-19H42a13,13,0,0,1-6.21-1.53,13.5,13.5,0,0,1-7.41-12.1V218.64H36.6v13.62A5.45,5.45,0,0,0,42,237.69h24.4V218.64Z"/></g></g></g></g></g></svg>