<svg xmlns="http://www.w3.org/2000/svg" xmlns:xlink="http://www.w3.org/1999/xlink" viewBox="0 0 480 480"><defs><style>.bc146664-06fb-4dbf-b1c4-8b6212de7ec7{isolation:isolate;}.a05002bc-feb9-4970-89dc-510cdb0bc770{opacity:0.9;}.b73e6190-098f-4273-ba09-17b9e0043e9f{opacity:0.3;}.a4c7cf33-787b-4082-a547-711cd97558cd,.a79996d0-7fd8-4a22-ae5b-eebe791ce613,.a956d986-36b1-4354-8438-597eb5358b12,.a9cbe341-f009-404f-b6e4-592b084f2780,.ad0ff347-7ed8-45eb-8595-ef586379ad46,.ad293d89-18f3-4571-9f52-980d570a97d1,.ad3c7633-a4a5-4412-bd54-2af2bc2a5bd9,.b12c77e4-1997-4258-8b43-04d179a7c80d,.ba5a5741-b754-40fb-a9f4-bb2d0d512c47,.bd81090c-e81f-457c-92c1-226eeb357bc4,.bf15a838-bc41-431f-abb7-e3334bb1daae,.bfbe842c-fe3b-4335-b1cc-a8f06db8902c,.e080dc6a-dcfa-4acb-b883-3bd676cad3dc,.e531fcd5-c3a8-4a7a-9cab-a6ce75cbc2a8,.e74a9b76-7259-485f-8d0b-805917254d20,.edb630c6-9a09-407d-ac41-a919beaa9700,.f0546c03-c68a-4b25-a7c8-4d80fae2a6bf,.f69539f6-a23e-47ef-8d8d-5b0c154d6cf2,.fb709812-a120-45fe-bb00-34d08c36118a,.ffe7e3ad-4113-47f9-b4d7-4a6847a3954c{fill:none;stroke-miterlimit:10;stroke-width:2px;}.b12c77e4-1997-4258-8b43-04d179a7c80d{stroke:url(#ac71b794-ed10-4fb2-a46b-df7869391f69);}.bf15a838-bc41-431f-abb7-e3334bb1daae{stroke:url(#feb4a344-dcd8-44ac-abf6-02e40d6088ce);}.edb630c6-9a09-407d-ac41-a919beaa9700{stroke:url(#e9c477f3-ee80-45bf-b3ae-6bde41326b44);}.e74a9b76-7259-485f-8d0b-805917254d20{stroke:url(#a9b84caf-979f-48b4-b909-faabbfabf2f0);}.fb709812-a120-45fe-bb00-34d08c36118a{stroke:url(#aa66ab77-def3-4760-a406-7e9f668a7339);}.f0546c03-c68a-4b25-a7c8-4d80fae2a6bf{stroke:url(#faf0231e-fdc9-4ad6-b443-d5040f076f8b);}.a4c7cf33-787b-4082-a547-711cd97558cd{stroke:url(#a97d6367-0ffc-46ed-9b7f-1423712653d5);}.bfbe842c-fe3b-4335-b1cc-a8f06db8902c{stroke:url(#e733b294-43eb-42d5-a80d-7a0c0917050f);}.ad293d89-18f3-4571-9f52-980d570a97d1{stroke:url(#e7f42544-94c2-4306-b71b-08bf3c779575);}.a79996d0-7fd8-4a22-ae5b-eebe791ce613{stroke:url(#b6687525-9adc-4b77-a448-990ff522de1c);}.ffe7e3ad-4113-47f9-b4d7-4a6847a3954c{stroke:url(#bc4238e1-52df-482d-a6fa-f171ae9f4cf8);}.bd81090c-e81f-457c-92c1-226eeb357bc4{stroke:url(#af5c6fc5-fc74-46b4-bc86-3f4f3836235f);}.f69539f6-a23e-47ef-8d8d-5b0c154d6cf2{stroke:url(#aa2c6108-510a-42c4-8b94-ea2439221522);}.ba5a5741-b754-40fb-a9f4-bb2d0d512c47{stroke:url(#bac0437e-57ec-4ece-acf8-93c7e3af8640);}.a956d986-36b1-4354-8438-597eb5358b12{stroke:url(#b9123bd2-c8ff-4c46-a3b6-e02cfa5da144);}.ad3c7633-a4a5-4412-bd54-2af2bc2a5bd9{stroke:url(#afd5d7cc-8714-4512-88a5-0595c7634155);}.e080dc6a-dcfa-4acb-b883-3bd676cad3dc{stroke:url(#bd369440-b817-4179-88ec-e7749e7b7bdb);}.ad0ff347-7ed8-45eb-8595-ef586379ad46{stroke:url(#bd6ca10e-701e-4661-b508-57ed5544bedf);}.e531fcd5-c3a8-4a7a-9cab-a6ce75cbc2a8{stroke:url(#a25948b4-1efd-46a6-8523-4fecb8ae5497);}.a9cbe341-f009-404f-b6e4-592b084f2780{stroke:url(#b21c1e4b-ac55-47ca-aa7d-8296b137f4be);}.a43180ba-5431-4e1c-873e-0cc3f905870b{opacity:0.6;}.a43180ba-5431-4e1c-873e-0cc3f905870b,.bbb9270c-7f9b-4c6f-92b6-830d8ad5ced2{mix-blend-mode:hard-light;}.aa742f9d-12f5-4885-95cc-941815734ba0{fill:#330510;}.bbb9270c-7f9b-4c6f-92b6-830d8ad5ced2,.e9ae6104-5639-4a07-8c6b-239447e53fe9{opacity:0.8;}.fb2d9670-170b-4df7-87b8-bf5972ef5ea7{fill:url(#b59e739f-73c8-4409-b0c2-45bcda665f7e);}.a7410e40-896b-4a3d-8358-a73b02f78536{fill:url(#b2694681-04f7-42a3-b048-4d648a20e6d8);}.a22c6163-7fae-472c-8097-1f3cb41648b6{fill:url(#e06083c8-f079-4721-beef-b3c991f46615);}.ac99f1b3-fead-4c26-9c9a-9d909e81481a{fill:url(#a904211c-f1fd-47ce-aed1-c65a700b1fa1);}.baf4fa79-10d6-4362-9a98-796916805570{fill:url(#e6f1958d-d47a-4a09-8332-387ad11b754f);}.af49310a-ff7d-4eb2-9a3f-4e2e26ded685{fill:url(#a6abb36e-b4d6-4477-b958-4ed7ba1e4ee0);}.a4e4dc8e-6412-4078-866e-b4209fe226a5{fill:url(#af2e9039-0a42-4ffd-bea6-564d7277e79b);}.f3f529de-76d8-4e1c-af9b-4bf7d524a487{fill:url(#a472515a-786b-4a00-9b82-693dcfa4dd65);}.f4329210-5417-4670-a798-10f2696b6413{fill:url(#abf64c7c-5184-4225-9e9e-b64785bc49b4);}.f9058c4d-b8e3-4666-8ed1-98ff3ccb04be{fill:url(#fe3612ed-19e3-48fc-9054-8563576160c3);}.ae1bc2c5-7237-44f9-b53a-5edc0b7ca8f4{fill:url(#e500095a-7a5d-4edb-86b2-738e1c7ce4df);}.a756482a-cdf2-408d-95f5-b13ca5ff7f8e{fill:url(#acb57abf-ab1a-437f-a70c-eced10a7e6a1);}.a6d847e9-52c9-4700-b17c-5f9b25400f00{fill:url(#bbf5eeea-9b19-45c2-831c-d5be8247f9aa);}.b7ae0abe-c838-4dab-b731-b4e932421af0{fill:url(#b12bd797-5d07-4991-8911-172e096fc2cd);}.fb2fbb79-b216-4eb7-a20a-802c98ce9caf{fill:url(#a168e71e-a8e4-4ecd-9cec-b691ea4b528f);}.b31e8dda-639c-4eaf-8e9b-3ff8e772e016{fill:url(#b7f7c4e4-b057-470f-80cc-22b8ea13b004);}.ac002680-67f6-4213-9445-8d97ad84770d{fill:url(#b3c0489f-f19d-4b95-8b9f-7ab1d881ceb1);}</style><linearGradient id="ac71b794-ed10-4fb2-a46b-df7869391f69" y1="436.36" x2="480" y2="436.36" gradientUnits="userSpaceOnUse"><stop offset="0" stop-color="#fff6e4" stop-opacity="0"/><stop offset="0.01" stop-color="#fff2de" stop-opacity="0.07"/><stop offset="0.05" stop-color="#ffe9cd" stop-opacity="0.26"/><stop offset="0.09" stop-color="#ffe0be" stop-opacity="0.44"/><stop offset="0.13" stop-color="#ffd8b1" stop-opacity="0.59"/><stop offset="0.17" stop-color="#ffd2a6" stop-opacity="0.72"/><stop offset="0.21" stop-color="#ffcd9d" stop-opacity="0.82"/><stop offset="0.26" stop-color="#ffc997" stop-opacity="0.9"/><stop offset="0.32" stop-color="#ffc692" stop-opacity="0.96"/><stop offset="0.39" stop-color="#ffc48f" stop-opacity="0.99"/><stop offset="0.5" stop-color="#ffc48e"/><stop offset="0.61" stop-color="#ffc48f" stop-opacity="0.99"/><stop offset="0.68" stop-color="#ffc692" stop-opacity="0.96"/><stop offset="0.74" stop-color="#ffc997" stop-opacity="0.9"/><stop offset="0.79" stop-color="#ffcd9d" stop-opacity="0.82"/><stop offset="0.83" stop-color="#ffd2a6" stop-opacity="0.72"/><stop offset="0.87" stop-color="#ffd8b1" stop-opacity="0.59"/><stop offset="0.91" stop-color="#ffe0be" stop-opacity="0.44"/><stop offset="0.95" stop-color="#ffe9cd" stop-opacity="0.26"/><stop offset="0.99" stop-color="#fff2de" stop-opacity="0.07"/><stop offset="1" stop-color="#fff6e4" stop-opacity="0"/></linearGradient><linearGradient id="feb4a344-dcd8-44ac-abf6-02e40d6088ce" y1="392.73" y2="392.73" xlink:href="#ac71b794-ed10-4fb2-a46b-df7869391f69"/><linearGradient id="e9c477f3-ee80-45bf-b3ae-6bde41326b44" y1="349.09" y2="349.09" xlink:href="#ac71b794-ed10-4fb2-a46b-df7869391f69"/><linearGradient id="a9b84caf-979f-48b4-b909-faabbfabf2f0" y1="305.45" y2="305.45" xlink:href="#ac71b794-ed10-4fb2-a46b-df7869391f69"/><linearGradient id="aa66ab77-def3-4760-a406-7e9f668a7339" y1="261.82" y2="261.82" xlink:href="#ac71b794-ed10-4fb2-a46b-df7869391f69"/><linearGradient id="faf0231e-fdc9-4ad6-b443-d5040f076f8b" y1="218.18" y2="218.18" xlink:href="#ac71b794-ed10-4fb2-a46b-df7869391f69"/><linearGradient id="a97d6367-0ffc-46ed-9b7f-1423712653d5" y1="174.55" y2="174.55" xlink:href="#ac71b794-ed10-4fb2-a46b-df7869391f69"/><linearGradient id="e733b294-43eb-42d5-a80d-7a0c0917050f" y1="130.91" y2="130.91" xlink:href="#ac71b794-ed10-4fb2-a46b-df7869391f69"/><linearGradient id="e7f42544-94c2-4306-b71b-08bf3c779575" y1="87.27" y2="87.27" xlink:href="#ac71b794-ed10-4fb2-a46b-df7869391f69"/><linearGradient id="b6687525-9adc-4b77-a448-990ff522de1c" y1="43.64" y2="43.64" xlink:href="#ac71b794-ed10-4fb2-a46b-df7869391f69"/><linearGradient id="bc4238e1-52df-482d-a6fa-f171ae9f4cf8" x1="86.9" y1="397.91" x2="566.9" y2="397.91" gradientTransform="translate(38.45 566.9) rotate(-90)" xlink:href="#ac71b794-ed10-4fb2-a46b-df7869391f69"/><linearGradient id="af5c6fc5-fc74-46b4-bc86-3f4f3836235f" x1="86.9" y1="354.28" x2="566.9" y2="354.28" gradientTransform="translate(38.45 566.9) rotate(-90)" xlink:href="#ac71b794-ed10-4fb2-a46b-df7869391f69"/><linearGradient id="aa2c6108-510a-42c4-8b94-ea2439221522" x1="86.9" y1="310.64" x2="566.9" y2="310.64" gradientTransform="translate(38.45 566.9) rotate(-90)" xlink:href="#ac71b794-ed10-4fb2-a46b-df7869391f69"/><linearGradient id="bac0437e-57ec-4ece-acf8-93c7e3af8640" x1="86.9" y1="267" x2="566.9" y2="267" gradientTransform="translate(38.45 566.9) rotate(-90)" xlink:href="#ac71b794-ed10-4fb2-a46b-df7869391f69"/><linearGradient id="b9123bd2-c8ff-4c46-a3b6-e02cfa5da144" x1="86.9" y1="223.37" x2="566.9" y2="223.37" gradientTransform="translate(38.45 566.9) rotate(-90)" xlink:href="#ac71b794-ed10-4fb2-a46b-df7869391f69"/><linearGradient id="afd5d7cc-8714-4512-88a5-0595c7634155" x1="86.9" y1="179.73" x2="566.9" y2="179.73" gradientTransform="translate(38.45 566.9) rotate(-90)" xlink:href="#ac71b794-ed10-4fb2-a46b-df7869391f69"/><linearGradient id="bd369440-b817-4179-88ec-e7749e7b7bdb" x1="86.9" y1="136.09" x2="566.9" y2="136.09" gradientTransform="translate(38.45 566.9) rotate(-90)" xlink:href="#ac71b794-ed10-4fb2-a46b-df7869391f69"/><linearGradient id="bd6ca10e-701e-4661-b508-57ed5544bedf" x1="86.9" y1="92.46" x2="566.9" y2="92.46" gradientTransform="translate(38.45 566.9) rotate(-90)" xlink:href="#ac71b794-ed10-4fb2-a46b-df7869391f69"/><linearGradient id="a25948b4-1efd-46a6-8523-4fecb8ae5497" x1="86.9" y1="48.82" x2="566.9" y2="48.82" gradientTransform="translate(38.45 566.9) rotate(-90)" xlink:href="#ac71b794-ed10-4fb2-a46b-df7869391f69"/><linearGradient id="b21c1e4b-ac55-47ca-aa7d-8296b137f4be" x1="86.9" y1="5.18" x2="566.9" y2="5.18" gradientTransform="translate(38.45 566.9) rotate(-90)" xlink:href="#ac71b794-ed10-4fb2-a46b-df7869391f69"/><radialGradient id="b59e739f-73c8-4409-b0c2-45bcda665f7e" cx="240.01" cy="240.04" r="58.81" gradientUnits="userSpaceOnUse"><stop offset="0" stop-color="#7a2016"/><stop offset="1" stop-color="#a34931"/></radialGradient><radialGradient id="b2694681-04f7-42a3-b048-4d648a20e6d8" cx="186.5" cy="158.61" fx="123.40922753630254" fy="202.49188186521295" r="76.85" gradientTransform="matrix(0.95, -0.32, 0.15, 0.45, -14.3, 148.08)" xlink:href="#b59e739f-73c8-4409-b0c2-45bcda665f7e"/><radialGradient id="e06083c8-f079-4721-beef-b3c991f46615" cx="281.53" cy="324.87" fx="217.13165783854674" fy="293.6610588678477" r="73.66" gradientTransform="matrix(0.82, -0.58, 0.34, 0.48, -58.99, 330.27)" gradientUnits="userSpaceOnUse"><stop offset="0" stop-color="#a34931"/><stop offset="1" stop-color="#7a2016"/></radialGradient><radialGradient id="a904211c-f1fd-47ce-aed1-c65a700b1fa1" cx="321.43" cy="182.33" fx="254.58242239152656" fy="161.46199991621833" r="70.03" gradientTransform="translate(187.61 -126.42) rotate(49.36) scale(1 0.55)" gradientUnits="userSpaceOnUse"><stop offset="0.05" stop-color="#7a2016"/><stop offset="0.24" stop-color="#83291c"/><stop offset="1" stop-color="#a34931"/></radialGradient><radialGradient id="e6f1958d-d47a-4a09-8332-387ad11b754f" cx="161.64" cy="285.67" fx="190.88782841552026" fy="333.65632325530976" r="56.2" gradientTransform="translate(0 -115.35) scale(1 1.4)" xlink:href="#b59e739f-73c8-4409-b0c2-45bcda665f7e"/><radialGradient id="a6abb36e-b4d6-4477-b958-4ed7ba1e4ee0" cx="240.03" cy="240.04" r="18.01" xlink:href="#b59e739f-73c8-4409-b0c2-45bcda665f7e"/><linearGradient id="af2e9039-0a42-4ffd-bea6-564d7277e79b" x1="393.75" y1="411.93" x2="348.28" y2="333.17" gradientUnits="userSpaceOnUse"><stop offset="0" stop-color="#7a2016"/><stop offset="1" stop-color="#cc714b"/></linearGradient><linearGradient id="a472515a-786b-4a00-9b82-693dcfa4dd65" x1="440.49" y1="178.34" x2="517.77" y2="255.62" gradientTransform="matrix(0.93, 0.36, -0.47, 1.23, 46.8, -47.07)" gradientUnits="userSpaceOnUse"><stop offset="0" stop-color="#a34931"/><stop offset="1" stop-color="#cc714b"/></linearGradient><linearGradient id="abf64c7c-5184-4225-9e9e-b64785bc49b4" x1="356.73" y1="75.2" x2="446.85" y2="75.2" gradientTransform="translate(6.63 -7.7) rotate(4.12)" xlink:href="#a472515a-786b-4a00-9b82-693dcfa4dd65"/><linearGradient id="fe3612ed-19e3-48fc-9054-8563576160c3" x1="314.55" y1="154.46" x2="404.67" y2="154.46" gradientTransform="translate(-16.87 29.97) rotate(-17)" xlink:href="#af2e9039-0a42-4ffd-bea6-564d7277e79b"/><linearGradient id="e500095a-7a5d-4edb-86b2-738e1c7ce4df" x1="55.22" y1="380.73" x2="143.32" y2="380.73" gradientTransform="matrix(1, 0, 0, 1, 0, 0)" xlink:href="#a472515a-786b-4a00-9b82-693dcfa4dd65"/><linearGradient id="acb57abf-ab1a-437f-a70c-eced10a7e6a1" x1="38.79" y1="436.94" x2="125.97" y2="436.94" gradientTransform="translate(11.95 -23.83)" gradientUnits="userSpaceOnUse"><stop offset="0" stop-color="#ffc48e"/><stop offset="1" stop-color="#cc714b"/></linearGradient><linearGradient id="bbf5eeea-9b19-45c2-831c-d5be8247f9aa" x1="29.19" y1="436.94" x2="135.65" y2="436.94" gradientTransform="translate(126.42 -30.37) rotate(14.81)" xlink:href="#af2e9039-0a42-4ffd-bea6-564d7277e79b"/><linearGradient id="b12bd797-5d07-4991-8911-172e096fc2cd" x1="44.81" y1="81.99" x2="170.32" y2="81.99" gradientUnits="userSpaceOnUse"><stop offset="0.39" stop-color="#a34931"/><stop offset="0.84" stop-color="#cc714b"/></linearGradient><linearGradient id="a168e71e-a8e4-4ecd-9cec-b691ea4b528f" x1="59.85" y1="123.52" x2="160.26" y2="123.52" xlink:href="#b12bd797-5d07-4991-8911-172e096fc2cd"/><linearGradient id="b7f7c4e4-b057-470f-80cc-22b8ea13b004" x1="82.26" y1="40.46" x2="157.77" y2="40.46" xlink:href="#b12bd797-5d07-4991-8911-172e096fc2cd"/><linearGradient id="b3c0489f-f19d-4b95-8b9f-7ab1d881ceb1" x1="-168.45" y1="66.81" x2="205.16" y2="66.81" gradientUnits="userSpaceOnUse"><stop offset="0.53" stop-color="#7a2016"/><stop offset="0.8" stop-color="#cc714b"/></linearGradient></defs><g class="bc146664-06fb-4dbf-b1c4-8b6212de7ec7"><g id="a18a2ac9-fa74-4043-8445-f813f8f19f5a" data-name="Layer 2"><g id="b82c5f22-299f-438b-a6cb-74c286903971" data-name="Banner Graphic"><g id="b9f76f58-42c8-49fc-8dd3-31f004971ea1" data-name="Callout 1" class="a05002bc-feb9-4970-89dc-510cdb0bc770"><g id="aa80b082-55ce-470d-bfe4-04d25522a34a" data-name="Grid" class="b73e6190-098f-4273-ba09-17b9e0043e9f"><line class="b12c77e4-1997-4258-8b43-04d179a7c80d" y1="436.36" x2="480" y2="436.36"/><line class="bf15a838-bc41-431f-abb7-e3334bb1daae" y1="392.73" x2="480" y2="392.73"/><line class="edb630c6-9a09-407d-ac41-a919beaa9700" y1="349.09" x2="480" y2="349.09"/><line class="e74a9b76-7259-485f-8d0b-805917254d20" y1="305.45" x2="480" y2="305.45"/><line class="fb709812-a120-45fe-bb00-34d08c36118a" y1="261.82" x2="480" y2="261.82"/><line class="f0546c03-c68a-4b25-a7c8-4d80fae2a6bf" y1="218.18" x2="480" y2="218.18"/><line class="a4c7cf33-787b-4082-a547-711cd97558cd" y1="174.55" x2="480" y2="174.55"/><line class="bfbe842c-fe3b-4335-b1cc-a8f06db8902c" y1="130.91" x2="480" y2="130.91"/><line class="ad293d89-18f3-4571-9f52-980d570a97d1" y1="87.27" x2="480" y2="87.27"/><line class="a79996d0-7fd8-4a22-ae5b-eebe791ce613" y1="43.64" x2="480" y2="43.64"/><line class="ffe7e3ad-4113-47f9-b4d7-4a6847a3954c" x1="436.36" y1="480" x2="436.36"/><line class="bd81090c-e81f-457c-92c1-226eeb357bc4" x1="392.73" y1="480" x2="392.73"/><line class="f69539f6-a23e-47ef-8d8d-5b0c154d6cf2" x1="349.09" y1="480" x2="349.09"/><line class="ba5a5741-b754-40fb-a9f4-bb2d0d512c47" x1="305.45" y1="480" x2="305.45"/><line class="a956d986-36b1-4354-8438-597eb5358b12" x1="261.82" y1="480" x2="261.82"/><line class="ad3c7633-a4a5-4412-bd54-2af2bc2a5bd9" x1="218.18" y1="480" x2="218.18"/><line class="e080dc6a-dcfa-4acb-b883-3bd676cad3dc" x1="174.55" y1="480" x2="174.55"/><line class="ad0ff347-7ed8-45eb-8595-ef586379ad46" x1="130.91" y1="480" x2="130.91"/><line class="e531fcd5-c3a8-4a7a-9cab-a6ce75cbc2a8" x1="87.27" y1="480" x2="87.27"/><line class="a9cbe341-f009-404f-b6e4-592b084f2780" x1="43.64" y1="480" x2="43.64"/></g><g id="ada244fa-b0da-43e6-a753-4447b6370607" data-name="Numbers" class="a43180ba-5431-4e1c-873e-0cc3f905870b"><path class="aa742f9d-12f5-4885-95cc-941815734ba0" d="M247.87,48.7V80.18H239.6V47.84A6.58,6.58,0,0,0,234,42.22h-1.85V34h1.79v.06a15,15,0,0,1,5.62,1.53,14.64,14.64,0,0,1,6.68,6.74,17.23,17.23,0,0,1,1.12,3.11,13.59,13.59,0,0,1,.4,3.37Z"/><path class="aa742f9d-12f5-4885-95cc-941815734ba0" d="M451.47,255.7V264H405.31V250.34a13.08,13.08,0,0,1,1.13-5.35,13.57,13.57,0,0,1,12-8.34h20a5.4,5.4,0,0,0-.46-10.78H405.44v-8.26h32.61a13.6,13.6,0,0,1,13.62,13.62,13.46,13.46,0,0,1-3.9,9.46,13.75,13.75,0,0,1-9.33,4.16h-20a5.39,5.39,0,0,0-4.83,5.36v5.36Z"/><path class="aa742f9d-12f5-4885-95cc-941815734ba0" d="M263.08,413.31a13.59,13.59,0,0,1-3.84,9.53A13.65,13.65,0,0,1,249.46,446H216.85v-8.26h32.61a5.45,5.45,0,0,0,5.42-5.43,5.38,5.38,0,0,0-5.09-5.42h-24.6V418.6h24.6a5.42,5.42,0,0,0-.27-10.84h-32.6v-8.27h32.6a13.61,13.61,0,0,1,13.63,13.62Z"/><path class="aa742f9d-12f5-4885-95cc-941815734ba0" d="M74.62,217.64v46.29H66.36v-19H42a13,13,0,0,1-6.21-1.53,13.5,13.5,0,0,1-7.41-12.1V217.64H36.6v13.62A5.45,5.45,0,0,0,42,236.69h24.4V217.64Z"/></g><g id="b2f3670c-0348-4c43-858c-6b82dbe08a32" data-name="P{rocess Flow" class="bbb9270c-7f9b-4c6f-92b6-830d8ad5ced2"><path class="fb2d9670-170b-4df7-87b8-bf5972ef5ea7" d="M298.61,240.3c-.64,2.95,1.88,8.93-2.4,9.42-4.35,1.38-11.94-.81-13.46,4.76-.89,4.37-5.63,8.13-1.1,12,1.47,2.7,7.75,7.15,4.9,10.05-3.19,1.88-10.36,13.49-13.5,10.1-3.61-1.79-7.92-8.44-12.05-6.71-3.08,2.71-9.66,1.81-10.06,6.71-1.28,3.4.67,11.92-4.14,12-3.63-1-16.45,2.26-16.46-2.41-1.32-4.29.79-11.61-4.42-13.4-3.89-.37-7.58-5.42-11.18-2-2.93,1.52-8.47,8.94-11.39,5.62-1.85-3.26-13.18-10.06-10-13.31,1.9-3.82,8.51-7.81,6.67-12.31-4.76-11.81-3.83-9.39-16-11-5,.18-1.6-12.83-2.61-16.54,0-1.93.83-2.65,2.61-2.85,12.57-1.66,11.22.49,16.1-11.33,1.6-4.1-4.92-8.45-6.76-12-3.24-3.33,8.15-10,10-13.31,3-3.39,8.58,4.36,11.63,5.77,3.4,3.08,7.21-1.88,10.94-2.21,5.11-1.81,3.16-8.87,4.42-13.13,0-5.13,12.72-1.64,16.54-2.7,4.74-.09,2.82,8.77,4.06,12,.32,4.84,6.79,3.91,9.79,6.56,4.29,2.08,8.58-4.73,12.31-6.57,3.33-3.38,10.21,8.22,13.51,10.09,3.94,4.17-9.57,10.82-6.58,15.66,2.49,3.16,1.91,9.58,6.76,10,10.53,1.94,12.79-1.75,11.9,11.15Zm-85.3-.27c.35,34.86,53.45,35,53.35-.13C265.87,204.81,214.13,205.24,213.31,240Z"/><path class="a7410e40-896b-4a3d-8358-a73b02f78536" d="M140.31,199.83c-2.95-.67-12.14,2.2-9-3.3a108.6,108.6,0,0,1,11.51-21.46c21.71-31.61,55.57-50.84,94.05-52,5.49.1,2.08-7.79,3-11.25,0-1.7.61-2.09,1.95-1q12.09,10,24.15,20.09c1.24,1,.91,1.81-.16,2.7-8.55,6.49-16.54,15-25.4,20.49-2.25-2.14,2-13.3-2.84-12.7-26.66,1.22-49.58,10.93-68.34,30.06a94,94,0,0,0-17.85,25.68c-1.86,4.48-7.29,2-11,2.62Z"/><path class="a22c6163-7fae-472c-8097-1f3cb41648b6" d="M349.57,281.5c-18.37,45.06-57.3,73.25-106.11,75.46-6.48-.46-1.29,9.67-3.76,12.79-8.95-5.65-17-14.11-25.63-20.7-4.85-1,21.94-19.65,24-22.44,3.7-3.68,1.71,7.83,2.14,9.58,0,1.78.53,2.54,2.43,2.42,39.12-2.41,67.94-20.74,86-55.64,2.35-5.26,13.64-1.72,18.85-2.7C348.34,280.28,349.53,279.9,349.57,281.5Z"/><path class="ac99f1b3-fead-4c26-9c9a-9d909e81481a" d="M281.46,130.58c43.65,16.25,74.65,59.71,75.49,106.32-.14,6,9.8,1.07,12.79,3.48-5.64,8.94-14.1,17-20.68,25.62-1.05,4.91-19.8-22.12-22.61-24.2-3.1-3.48,8.23-1.49,10-2,1.74,0,2.3-.73,2.22-2.38-1.18-24.63-9.59-46.3-26.41-64.51a94.63,94.63,0,0,0-29.93-21.86,3.1,3.1,0,0,1-2.07-3.23C280.88,144.75,278.85,130.9,281.46,130.58Z"/><path class="baf4fa79-10d6-4362-9a98-796916805570" d="M110.26,239.21c6.55-8.45,13.73-16.47,20.45-24.79,1.15-1.39,2-1.35,3.08,0,6.49,8.5,14.7,16.42,20.39,25.19-2.06,2.47-13.52-2.12-12.74,3.12.92,19.63,6.7,37.64,18,53.78a96.3,96.3,0,0,0,33.36,29.85c5.17,3,1.41,13.31,2.57,18.73.06,2.47-.67,2.89-2.91,1.9-37.18-16.31-63.64-52.25-68.62-92.47-2.3-12.85,4.16-15.15-12.14-14.32C111.09,240.2,110.28,240.37,110.26,239.21Z"/><path class="af49310a-ff7d-4eb2-9a3f-4e2e26ded685" d="M258.19,240.13c0,23.82-36.7,23.7-36.31-.32C221.93,216.23,258.45,216.27,258.19,240.13Z"/></g><g id="a938521e-d984-4be2-920d-09f22a53c06d" data-name="Film Icon" class="bbb9270c-7f9b-4c6f-92b6-830d8ad5ced2"><path class="a4e4dc8e-6412-4078-866e-b4209fe226a5" d="M371,327.09a45.46,45.46,0,1,0,45.46,45.46A45.44,45.44,0,0,0,371,327.09Zm-18.18,70.46a11.37,11.37,0,1,1,11.36-11.36A11.37,11.37,0,0,1,352.83,397.55Zm6.82-43.18A11.37,11.37,0,1,1,371,365.73,11.37,11.37,0,0,1,359.65,354.37Zm29.55,43.18a11.37,11.37,0,1,1,11.36-11.36A11.37,11.37,0,0,1,389.2,397.55Z"/><path class="f3f529de-76d8-4e1c-af9b-4bf7d524a487" d="M435.82,351.39l-4.31,11.16L423,359.28l4.3-11.16L400.07,337.6a45.33,45.33,0,0,1,16.4,34.95c0,1.44-.08,2.86-.21,4.27l2.46-6.38,8.48,3.27-4.31,11.16L415.47,382a45,45,0,0,1-4,11.26l7.15,2.76-4.31,11.16-8.48-3.27,1.64-4.26A45.33,45.33,0,0,1,345,409.83l-7.37,19.08,8.49,3.28,4.3-11.16L359,424.3l-4.31,11.16,33.93,13.1,4.3-11.16,8.49,3.27-4.31,11.16,8.48,3.28L444.3,354.67Zm-30.16,78.12-8.48-3.27,4.31-11.16,8.48,3.27Z"/></g><g id="bfa5035c-bd01-4d4e-86ac-8fcc94ffbf65" data-name="Shoot Icon" class="e9ae6104-5639-4a07-8c6b-239447e53fe9"><path class="f4329210-5417-4670-a798-10f2696b6413" d="M429.75,86.9l1.13-15.73a4.5,4.5,0,0,0-4.17-4.82l-62.92-4.54A4.51,4.51,0,0,0,359,66l-3.88,53.94a4.49,4.49,0,0,0,4.17,4.81l62.92,4.54A4.51,4.51,0,0,0,427,125.1l1.13-15.73,16.68,19.27L449,70.21Z"/><path class="f9058c4d-b8e3-4666-8ed1-98ff3ccb04be" d="M387.5,30.16l13.88,14.61-12.92,3.95-13.89-14.6L366,36.75l13.89,14.6-12.93,4L353,40.7l-8.61,2.64,13.88,14.6-12.92,4-13.89-14.6-4.31,1.32a9,9,0,0,0-5.94,11.24L337,111.57a9,9,0,0,0,11.26,6l68.94-21.07a9,9,0,0,0,6-11.26L404.73,24.89Z"/></g><g id="bff7c0a7-a0be-4d6d-a53f-0e9f6ecd2bfc" data-name="Measure" class="e9ae6104-5639-4a07-8c6b-239447e53fe9"><path class="ae1bc2c5-7237-44f9-b53a-5edc0b7ca8f4" d="M133.53,336.68H65a9.78,9.78,0,0,0-9.78,9.79V415A9.78,9.78,0,0,0,65,424.78h68.53a9.79,9.79,0,0,0,9.79-9.79V346.47A9.79,9.79,0,0,0,133.53,336.68ZM84.58,405.2H74.79V370.94h9.79Zm19.58,0H94.37V356.26h9.79Zm19.58,0H114V385.62h9.79Z"/><g id="a7b1a081-7d9c-484e-b67a-4f635934b736" data-name="Ruler"><rect class="a756482a-cdf2-408d-95f5-b13ca5ff7f8e" x="50.74" y="398.75" width="87.19" height="28.73" transform="translate(108.77 -10.39) rotate(14.81)"/><path class="a6d847e9-52c9-4700-b17c-5f9b25400f00" d="M142,403.43,57.78,381.15c-5.15-1.36-10.19.65-11.2,4.47L39.24,413.4c-1,3.82,2.37,8.06,7.52,9.42L131,445.09c5.14,1.36,10.18-.65,11.19-4.47l7.35-27.77C150.52,409,147.13,404.79,142,403.43Zm-9.18,34.72L48.59,415.87l7.35-27.77,9.36,2.47-3.68,13.89L71,406.94l3.67-13.89L84,395.52l-3.67,13.89,9.35,2.48L93.37,398l9.35,2.47-3.67,13.89,9.36,2.48L112.08,403l9.36,2.47-3.68,13.89,9.36,2.48,3.67-13.89,9.36,2.47Z"/></g></g><g id="ba0d950d-1a77-4b6d-b4dd-60d4244c8c6e" data-name="Communicate" class="e9ae6104-5639-4a07-8c6b-239447e53fe9"><path class="b7ae0abe-c838-4dab-b731-b4e932421af0" d="M150.21,51.79H124.13l-1.89,10.72A8.47,8.47,0,0,1,120,79.16c-.24,0-.46,0-.7-.07l-1.2,6.77c.68-.06,1.32-.09,1.9-.09,6.31,0,18.88,3.13,18.88,9.44v5.66H115.33a8.59,8.59,0,0,1-9.61,5.75l-23.46-4.15v2.17a7.57,7.57,0,0,0,7.55,7.55h60.4a7.57,7.57,0,0,0,7.56-7.55V59.34A7.58,7.58,0,0,0,150.21,51.79Z"/><rect class="fb2fbb79-b216-4eb7-a20a-802c98ce9caf" x="89.81" y="119.75" width="60.4" height="7.55"/><path class="b31e8dda-639c-4eaf-8e9b-3ff8e772e016" d="M124.13,44.24h26.08V36.69H104.79L117.68,39A8.58,8.58,0,0,1,124.13,44.24Z"/><path class="ac002680-67f6-4213-9445-8d97ad84770d" d="M124.13,44.24A8.58,8.58,0,0,0,117.68,39l-12.89-2.28L50,27a8.58,8.58,0,0,0-9.91,7l-9,50.73a8.61,8.61,0,0,0,7,10l44.19,7.81,23.46,4.15a8.59,8.59,0,0,0,9.61-5.75,8.35,8.35,0,0,0,.34-1.21l2.44-13.8,1.2-6.77,2.93-16.58,1.89-10.72.51-2.87A8.5,8.5,0,0,0,124.13,44.24Zm-9.44,11.64L82.26,69,77.13,71,47,43.92l1.49-8.45L78.62,62.59l3.64-1.47,23.11-9.33,10.82-4.37-.78,4.37Z"/></g></g></g></g></g></svg>